<svg xmlns="http://www.w3.org/2000/svg" xmlns:xlink="http://www.w3.org/1999/xlink" width="2048" zoomAndPan="magnify" viewBox="0 0 1536 1535.999932" height="2048" preserveAspectRatio="xMidYMid meet" version="1.0"><defs><g/></defs><g fill="#000000" fill-opacity="1"><g transform="translate(153.964357, 900.675311)"><g><path d="M 399.5 -7.640625 C 400.351562 -5.941406 400.144531 -4.242188 398.875 -2.546875 C 397.601562 -0.847656 395.90625 0 393.78125 0 L 305.984375 0 C 303.015625 0 301.109375 -1.269531 300.265625 -3.8125 L 199.75 -287.546875 L 100.515625 -3.8125 C 100.085938 -1.269531 97.96875 0 94.15625 0 L 7 0 C 4.03125 0 2.015625 -0.847656 0.953125 -2.546875 C -0.109375 -4.242188 -0.210938 -5.941406 0.640625 -7.640625 L 193.390625 -505.109375 C 194.234375 -507.648438 196.351562 -508.921875 199.75 -508.921875 C 203.144531 -508.921875 205.265625 -507.648438 206.109375 -505.109375 Z M 399.5 -7.640625 "/></g></g></g><g fill="#000000" fill-opacity="1"><g transform="translate(573.824437, 900.675311)"><g><path d="M 375.328125 -508.921875 C 379.566406 -508.921875 381.6875 -507.015625 381.6875 -503.203125 L 381.6875 -169.859375 C 381.6875 -134.234375 373.3125 -103.695312 356.5625 -78.25 C 339.8125 -52.800781 317.015625 -33.394531 288.171875 -20.03125 C 259.335938 -6.675781 226.894531 0 190.84375 0 C 156.070312 0 124.160156 -6.890625 95.109375 -20.671875 C 66.054688 -34.453125 42.941406 -54.066406 25.765625 -79.515625 C 8.585938 -104.960938 0 -135.078125 0 -169.859375 L 0 -416.6875 L 96.0625 -416.6875 L 96.0625 -170.484375 C 99.03125 -145.460938 109.738281 -126.378906 128.1875 -113.234375 C 146.632812 -100.085938 167.519531 -93.515625 190.84375 -93.515625 C 206.957031 -93.515625 222.222656 -96.269531 236.640625 -101.78125 C 251.066406 -107.300781 262.835938 -115.785156 271.953125 -127.234375 C 281.078125 -138.679688 285.640625 -152.890625 285.640625 -169.859375 L 285.640625 -503.203125 C 285.640625 -507.015625 287.96875 -508.921875 292.625 -508.921875 Z M 375.328125 -508.921875 "/></g></g></g><g fill="#000000" fill-opacity="1"><g transform="translate(974.599945, 900.675311)"><g><path d="M 388.0625 -415.40625 L 290.71875 -415.40625 C 278.425781 -415.832031 264.007812 -415.515625 247.46875 -414.453125 C 230.925781 -413.390625 213.957031 -410.207031 196.5625 -404.90625 C 179.175781 -399.613281 162.957031 -391.238281 147.90625 -379.78125 C 132.851562 -368.332031 120.765625 -352.425781 111.640625 -332.0625 C 102.523438 -311.707031 97.96875 -285.84375 97.96875 -254.46875 C 97.96875 -214.175781 106.34375 -181.835938 123.09375 -157.453125 C 139.84375 -133.066406 162.742188 -115.78125 191.796875 -105.59375 C 220.847656 -95.414062 253.820312 -91.175781 290.71875 -92.875 L 290.71875 -220.109375 L 192.75 -220.109375 L 192.75 -317.4375 L 388.0625 -317.4375 L 388.0625 -5.71875 C 388.0625 -1.90625 385.726562 0 381.0625 0 L 298.359375 0 C 273.335938 0 247.148438 -1.691406 219.796875 -5.078125 C 192.441406 -8.472656 165.722656 -15.046875 139.640625 -24.796875 C 113.554688 -34.554688 90.015625 -48.765625 69.015625 -67.421875 C 48.023438 -86.085938 31.273438 -110.6875 18.765625 -141.21875 C 6.253906 -171.757812 0 -209.507812 0 -254.46875 C 0 -298.144531 6.144531 -334.929688 18.4375 -364.828125 C 30.738281 -394.734375 47.382812 -419.117188 68.375 -437.984375 C 89.375 -456.859375 112.804688 -471.488281 138.671875 -481.875 C 164.546875 -492.269531 191.265625 -499.375 218.828125 -503.1875 C 246.398438 -507.007812 272.910156 -508.921875 298.359375 -508.921875 L 381.0625 -508.921875 C 385.726562 -508.921875 388.0625 -507.015625 388.0625 -503.203125 Z M 388.0625 -415.40625 "/></g></g></g><g fill="#000000" fill-opacity="1"><g transform="translate(163.715681, 1025.585988)"><g><path d="M 5.4375 -44.796875 L 22.40625 -44.796875 C 24.625 -44.796875 26.628906 -44.429688 28.421875 -43.703125 C 30.210938 -42.984375 31.722656 -41.992188 32.953125 -40.734375 C 34.191406 -39.472656 35.140625 -37.988281 35.796875 -36.28125 C 36.460938 -34.582031 36.796875 -32.726562 36.796875 -30.71875 C 36.796875 -28.71875 36.460938 -26.863281 35.796875 -25.15625 C 35.140625 -23.445312 34.191406 -21.960938 32.953125 -20.703125 C 31.722656 -19.441406 30.210938 -18.445312 28.421875 -17.71875 C 26.628906 -17 24.625 -16.640625 22.40625 -16.640625 L 10.875 -16.640625 L 10.875 0 L 5.4375 0 Z M 22.078125 -21.4375 C 24.984375 -21.4375 27.253906 -22.300781 28.890625 -24.03125 C 30.535156 -25.757812 31.359375 -27.988281 31.359375 -30.71875 C 31.359375 -33.445312 30.535156 -35.675781 28.890625 -37.40625 C 27.253906 -39.132812 24.984375 -40 22.078125 -40 L 10.875 -40 L 10.875 -21.4375 Z M 22.078125 -21.4375 "/></g></g></g><g fill="#000000" fill-opacity="1"><g transform="translate(203.713225, 1025.585988)"><g><path d="M 4.796875 -44.796875 L 9.59375 -44.796875 L 9.59375 0 L 4.796875 0 Z M 4.796875 -44.796875 "/></g></g></g><g fill="#000000" fill-opacity="1"><g transform="translate(218.11234, 1025.585988)"><g><path d="M 18.234375 0.640625 C 15.972656 0.640625 13.90625 0.269531 12.03125 -0.46875 C 10.15625 -1.21875 8.546875 -2.328125 7.203125 -3.796875 C 5.859375 -5.273438 4.800781 -7.082031 4.03125 -9.21875 C 3.257812 -11.351562 2.875 -13.828125 2.875 -16.640625 C 2.875 -19.453125 3.25 -21.925781 4 -24.0625 C 4.75 -26.195312 5.796875 -28 7.140625 -29.46875 C 8.484375 -30.945312 10.070312 -32.054688 11.90625 -32.796875 C 13.738281 -33.546875 15.742188 -33.921875 17.921875 -33.921875 C 20.484375 -33.921875 22.703125 -33.441406 24.578125 -32.484375 C 26.453125 -31.523438 28.019531 -30.285156 29.28125 -28.765625 C 30.539062 -27.253906 31.46875 -25.59375 32.0625 -23.78125 C 32.65625 -21.96875 32.953125 -20.226562 32.953125 -18.5625 C 32.953125 -18.09375 32.929688 -17.664062 32.890625 -17.28125 C 32.847656 -16.894531 32.804688 -16.550781 32.765625 -16.25 C 32.722656 -15.914062 32.679688 -15.617188 32.640625 -15.359375 L 7.6875 -15.359375 C 7.851562 -11.515625 8.925781 -8.632812 10.90625 -6.71875 C 12.894531 -4.800781 15.335938 -3.84375 18.234375 -3.84375 C 22.078125 -3.84375 24.957031 -5.441406 26.875 -8.640625 L 32 -8.640625 C 30.894531 -5.566406 29.125 -3.25 26.6875 -1.6875 C 24.257812 -0.132812 21.441406 0.640625 18.234375 0.640625 Z M 28.15625 -19.515625 C 27.8125 -22.710938 26.703125 -25.164062 24.828125 -26.875 C 22.953125 -28.582031 20.648438 -29.4375 17.921875 -29.4375 C 15.191406 -29.4375 12.882812 -28.582031 11 -26.875 C 9.125 -25.164062 8.019531 -22.710938 7.6875 -19.515625 Z M 28.15625 -19.515625 "/></g></g></g><g fill="#000000" fill-opacity="1"><g transform="translate(253.95014, 1025.585988)"><g><path d="M 14.078125 0.640625 C 12.328125 0.640625 10.738281 0.375 9.3125 -0.15625 C 7.882812 -0.6875 6.664062 -1.410156 5.65625 -2.328125 C 4.65625 -3.253906 3.890625 -4.332031 3.359375 -5.5625 C 2.828125 -6.800781 2.5625 -8.144531 2.5625 -9.59375 C 2.5625 -11.050781 2.835938 -12.394531 3.390625 -13.625 C 3.941406 -14.863281 4.738281 -15.941406 5.78125 -16.859375 C 6.832031 -17.773438 8.132812 -18.5 9.6875 -19.03125 C 11.25 -19.570312 13.035156 -19.84375 15.046875 -19.84375 L 24.3125 -19.84375 L 24.3125 -22.078125 C 24.3125 -24.335938 23.585938 -26.128906 22.140625 -27.453125 C 20.691406 -28.773438 18.75 -29.4375 16.3125 -29.4375 C 14.226562 -29.4375 12.546875 -29 11.265625 -28.125 C 9.984375 -27.25 9.109375 -26.085938 8.640625 -24.640625 L 3.515625 -24.640625 C 4.328125 -27.710938 5.863281 -30.023438 8.125 -31.578125 C 10.382812 -33.140625 13.113281 -33.921875 16.3125 -33.921875 C 18.320312 -33.921875 20.113281 -33.628906 21.6875 -33.046875 C 23.269531 -32.472656 24.613281 -31.675781 25.71875 -30.65625 C 26.832031 -29.632812 27.675781 -28.394531 28.25 -26.9375 C 28.832031 -25.488281 29.125 -23.867188 29.125 -22.078125 L 29.125 0 L 25.28125 0 L 24.640625 -4.484375 L 24.3125 -4.484375 C 23.976562 -3.921875 23.5 -3.34375 22.875 -2.75 C 22.257812 -2.15625 21.515625 -1.597656 20.640625 -1.078125 C 19.765625 -0.566406 18.769531 -0.15625 17.65625 0.15625 C 16.550781 0.476562 15.359375 0.640625 14.078125 0.640625 Z M 14.078125 -3.84375 C 15.660156 -3.84375 17.085938 -4.085938 18.359375 -4.578125 C 19.640625 -5.066406 20.71875 -5.726562 21.59375 -6.5625 C 22.46875 -7.394531 23.140625 -8.375 23.609375 -9.5 C 24.078125 -10.632812 24.3125 -11.84375 24.3125 -13.125 L 24.3125 -15.359375 L 15.046875 -15.359375 C 12.484375 -15.359375 10.5625 -14.84375 9.28125 -13.8125 C 8 -12.789062 7.359375 -11.382812 7.359375 -9.59375 C 7.359375 -7.800781 7.953125 -6.394531 9.140625 -5.375 C 10.335938 -4.351562 11.984375 -3.84375 14.078125 -3.84375 Z M 14.078125 -3.84375 "/></g></g></g><g fill="#000000" fill-opacity="1"><g transform="translate(287.228103, 1025.585988)"><g><path d="M 15.046875 0.640625 C 11.671875 0.640625 8.851562 -0.222656 6.59375 -1.953125 C 4.332031 -3.679688 2.878906 -5.910156 2.234375 -8.640625 L 7.359375 -8.640625 C 7.828125 -7.015625 8.773438 -5.804688 10.203125 -5.015625 C 11.640625 -4.234375 13.253906 -3.84375 15.046875 -3.84375 C 17.773438 -3.84375 19.789062 -4.332031 21.09375 -5.3125 C 22.394531 -6.289062 23.046875 -7.503906 23.046875 -8.953125 C 23.046875 -10.328125 22.550781 -11.363281 21.5625 -12.0625 C 20.582031 -12.769531 19.359375 -13.328125 17.890625 -13.734375 C 16.421875 -14.140625 14.832031 -14.519531 13.125 -14.875 C 11.414062 -15.238281 9.820312 -15.757812 8.34375 -16.4375 C 6.875 -17.125 5.648438 -18.097656 4.671875 -19.359375 C 3.691406 -20.617188 3.203125 -22.378906 3.203125 -24.640625 C 3.203125 -25.835938 3.46875 -26.988281 4 -28.09375 C 4.53125 -29.207031 5.304688 -30.203125 6.328125 -31.078125 C 7.359375 -31.953125 8.609375 -32.644531 10.078125 -33.15625 C 11.546875 -33.664062 13.203125 -33.921875 15.046875 -33.921875 C 16.492188 -33.921875 17.878906 -33.738281 19.203125 -33.375 C 20.523438 -33.007812 21.726562 -32.472656 22.8125 -31.765625 C 23.90625 -31.066406 24.820312 -30.203125 25.5625 -29.171875 C 26.3125 -28.148438 26.859375 -26.957031 27.203125 -25.59375 L 22.078125 -25.59375 C 21.609375 -26.707031 20.796875 -27.625 19.640625 -28.34375 C 18.492188 -29.070312 16.960938 -29.4375 15.046875 -29.4375 C 12.609375 -29.4375 10.820312 -29 9.6875 -28.125 C 8.5625 -27.25 8 -26.085938 8 -24.640625 C 8 -23.191406 8.488281 -22.09375 9.46875 -21.34375 C 10.445312 -20.59375 11.671875 -19.992188 13.140625 -19.546875 C 14.617188 -19.097656 16.210938 -18.691406 17.921875 -18.328125 C 19.628906 -17.972656 21.21875 -17.453125 22.6875 -16.765625 C 24.15625 -16.085938 25.378906 -15.148438 26.359375 -13.953125 C 27.347656 -12.753906 27.84375 -11.085938 27.84375 -8.953125 C 27.84375 -7.679688 27.550781 -6.46875 26.96875 -5.3125 C 26.394531 -4.15625 25.550781 -3.128906 24.4375 -2.234375 C 23.332031 -1.335938 21.988281 -0.632812 20.40625 -0.125 C 18.832031 0.382812 17.046875 0.640625 15.046875 0.640625 Z M 15.046875 0.640625 "/></g></g></g><g fill="#000000" fill-opacity="1"><g transform="translate(317.306252, 1025.585988)"><g><path d="M 18.234375 0.640625 C 15.972656 0.640625 13.90625 0.269531 12.03125 -0.46875 C 10.15625 -1.21875 8.546875 -2.328125 7.203125 -3.796875 C 5.859375 -5.273438 4.800781 -7.082031 4.03125 -9.21875 C 3.257812 -11.351562 2.875 -13.828125 2.875 -16.640625 C 2.875 -19.453125 3.25 -21.925781 4 -24.0625 C 4.75 -26.195312 5.796875 -28 7.140625 -29.46875 C 8.484375 -30.945312 10.070312 -32.054688 11.90625 -32.796875 C 13.738281 -33.546875 15.742188 -33.921875 17.921875 -33.921875 C 20.484375 -33.921875 22.703125 -33.441406 24.578125 -32.484375 C 26.453125 -31.523438 28.019531 -30.285156 29.28125 -28.765625 C 30.539062 -27.253906 31.46875 -25.59375 32.0625 -23.78125 C 32.65625 -21.96875 32.953125 -20.226562 32.953125 -18.5625 C 32.953125 -18.09375 32.929688 -17.664062 32.890625 -17.28125 C 32.847656 -16.894531 32.804688 -16.550781 32.765625 -16.25 C 32.722656 -15.914062 32.679688 -15.617188 32.640625 -15.359375 L 7.6875 -15.359375 C 7.851562 -11.515625 8.925781 -8.632812 10.90625 -6.71875 C 12.894531 -4.800781 15.335938 -3.84375 18.234375 -3.84375 C 22.078125 -3.84375 24.957031 -5.441406 26.875 -8.640625 L 32 -8.640625 C 30.894531 -5.566406 29.125 -3.25 26.6875 -1.6875 C 24.257812 -0.132812 21.441406 0.640625 18.234375 0.640625 Z M 28.15625 -19.515625 C 27.8125 -22.710938 26.703125 -25.164062 24.828125 -26.875 C 22.953125 -28.582031 20.648438 -29.4375 17.921875 -29.4375 C 15.191406 -29.4375 12.882812 -28.582031 11 -26.875 C 9.125 -25.164062 8.019531 -22.710938 7.6875 -19.515625 Z M 28.15625 -19.515625 "/></g></g></g><g fill="#000000" fill-opacity="1"><g transform="translate(353.144052, 1025.585988)"><g/></g></g><g fill="#000000" fill-opacity="1"><g transform="translate(367.223202, 1025.585988)"><g><path d="M 0.640625 -33.28125 L 5.4375 -33.28125 L 12.796875 -6.40625 L 13.125 -6.40625 L 20.484375 -33.28125 L 25.921875 -33.28125 L 33.28125 -6.40625 L 33.59375 -6.40625 L 40.953125 -33.28125 L 45.765625 -33.28125 L 36.484375 0 L 30.40625 0 L 23.359375 -25.921875 L 23.046875 -25.921875 L 16 0 L 9.921875 0 Z M 0.640625 -33.28125 "/></g></g></g><g fill="#000000" fill-opacity="1"><g transform="translate(413.620338, 1025.585988)"><g><path d="M 14.078125 0.640625 C 12.328125 0.640625 10.738281 0.375 9.3125 -0.15625 C 7.882812 -0.6875 6.664062 -1.410156 5.65625 -2.328125 C 4.65625 -3.253906 3.890625 -4.332031 3.359375 -5.5625 C 2.828125 -6.800781 2.5625 -8.144531 2.5625 -9.59375 C 2.5625 -11.050781 2.835938 -12.394531 3.390625 -13.625 C 3.941406 -14.863281 4.738281 -15.941406 5.78125 -16.859375 C 6.832031 -17.773438 8.132812 -18.5 9.6875 -19.03125 C 11.25 -19.570312 13.035156 -19.84375 15.046875 -19.84375 L 24.3125 -19.84375 L 24.3125 -22.078125 C 24.3125 -24.335938 23.585938 -26.128906 22.140625 -27.453125 C 20.691406 -28.773438 18.75 -29.4375 16.3125 -29.4375 C 14.226562 -29.4375 12.546875 -29 11.265625 -28.125 C 9.984375 -27.25 9.109375 -26.085938 8.640625 -24.640625 L 3.515625 -24.640625 C 4.328125 -27.710938 5.863281 -30.023438 8.125 -31.578125 C 10.382812 -33.140625 13.113281 -33.921875 16.3125 -33.921875 C 18.320312 -33.921875 20.113281 -33.628906 21.6875 -33.046875 C 23.269531 -32.472656 24.613281 -31.675781 25.71875 -30.65625 C 26.832031 -29.632812 27.675781 -28.394531 28.25 -26.9375 C 28.832031 -25.488281 29.125 -23.867188 29.125 -22.078125 L 29.125 0 L 25.28125 0 L 24.640625 -4.484375 L 24.3125 -4.484375 C 23.976562 -3.921875 23.5 -3.34375 22.875 -2.75 C 22.257812 -2.15625 21.515625 -1.597656 20.640625 -1.078125 C 19.765625 -0.566406 18.769531 -0.15625 17.65625 0.15625 C 16.550781 0.476562 15.359375 0.640625 14.078125 0.640625 Z M 14.078125 -3.84375 C 15.660156 -3.84375 17.085938 -4.085938 18.359375 -4.578125 C 19.640625 -5.066406 20.71875 -5.726562 21.59375 -6.5625 C 22.46875 -7.394531 23.140625 -8.375 23.609375 -9.5 C 24.078125 -10.632812 24.3125 -11.84375 24.3125 -13.125 L 24.3125 -15.359375 L 15.046875 -15.359375 C 12.484375 -15.359375 10.5625 -14.84375 9.28125 -13.8125 C 8 -12.789062 7.359375 -11.382812 7.359375 -9.59375 C 7.359375 -7.800781 7.953125 -6.394531 9.140625 -5.375 C 10.335938 -4.351562 11.984375 -3.84375 14.078125 -3.84375 Z M 14.078125 -3.84375 "/></g></g></g><g fill="#000000" fill-opacity="1"><g transform="translate(446.898289, 1025.585988)"><g><path d="M 4.484375 -33.28125 L 9.28125 -33.28125 L 9.28125 0 L 4.484375 0 Z M 6.90625 -38.078125 C 5.96875 -38.078125 5.164062 -38.394531 4.5 -39.03125 C 3.84375 -39.675781 3.515625 -40.46875 3.515625 -41.40625 C 3.515625 -42.34375 3.832031 -43.140625 4.46875 -43.796875 C 5.113281 -44.460938 5.925781 -44.796875 6.90625 -44.796875 C 7.84375 -44.796875 8.628906 -44.460938 9.265625 -43.796875 C 9.910156 -43.140625 10.234375 -42.34375 10.234375 -41.40625 C 10.234375 -40.507812 9.910156 -39.726562 9.265625 -39.0625 C 8.628906 -38.40625 7.84375 -38.078125 6.90625 -38.078125 Z M 6.90625 -38.078125 "/></g></g></g><g fill="#000000" fill-opacity="1"><g transform="translate(460.657428, 1025.585988)"><g><path d="M 15.046875 0 C 12.609375 0 10.609375 -0.773438 9.046875 -2.328125 C 7.492188 -3.890625 6.71875 -5.882812 6.71875 -8.3125 L 6.71875 -28.796875 L 1.59375 -28.796875 L 1.59375 -33.28125 L 6.71875 -33.28125 L 7.359375 -42.234375 L 11.515625 -42.234375 L 11.515625 -33.28125 L 20.15625 -33.28125 L 20.15625 -28.796875 L 11.515625 -28.796875 L 11.515625 -8.3125 C 11.515625 -7.207031 11.878906 -6.289062 12.609375 -5.5625 C 13.335938 -4.84375 14.253906 -4.484375 15.359375 -4.484375 L 20.15625 -4.484375 L 20.15625 0 Z M 15.046875 0 "/></g></g></g><g fill="#000000" fill-opacity="1"><g transform="translate(483.376031, 1025.585988)"><g/></g></g><g fill="#000000" fill-opacity="1"><g transform="translate(497.455169, 1025.585988)"><g><path d="M 6.71875 -28.796875 L 1.59375 -28.796875 L 1.59375 -33.28125 L 6.71875 -33.28125 L 6.71875 -36.484375 C 6.71875 -38.910156 7.492188 -40.898438 9.046875 -42.453125 C 10.609375 -44.015625 12.609375 -44.796875 15.046875 -44.796875 L 20.15625 -44.796875 L 20.15625 -40.3125 L 15.359375 -40.3125 C 14.253906 -40.3125 13.335938 -39.945312 12.609375 -39.21875 C 11.878906 -38.5 11.515625 -37.585938 11.515625 -36.484375 L 11.515625 -33.28125 L 20.15625 -33.28125 L 20.15625 -28.796875 L 11.515625 -28.796875 L 11.515625 0 L 6.71875 0 Z M 6.71875 -28.796875 "/></g></g></g><g fill="#000000" fill-opacity="1"><g transform="translate(518.893842, 1025.585988)"><g><path d="M 18.234375 0.640625 C 15.972656 0.640625 13.90625 0.269531 12.03125 -0.46875 C 10.15625 -1.21875 8.546875 -2.328125 7.203125 -3.796875 C 5.859375 -5.273438 4.800781 -7.082031 4.03125 -9.21875 C 3.257812 -11.351562 2.875 -13.828125 2.875 -16.640625 C 2.875 -19.453125 3.257812 -21.925781 4.03125 -24.0625 C 4.800781 -26.195312 5.859375 -28 7.203125 -29.46875 C 8.546875 -30.945312 10.15625 -32.054688 12.03125 -32.796875 C 13.90625 -33.546875 15.972656 -33.921875 18.234375 -33.921875 C 20.453125 -33.921875 22.507812 -33.546875 24.40625 -32.796875 C 26.3125 -32.054688 27.9375 -30.945312 29.28125 -29.46875 C 30.625 -28 31.675781 -26.195312 32.4375 -24.0625 C 33.207031 -21.925781 33.59375 -19.453125 33.59375 -16.640625 C 33.59375 -13.828125 33.207031 -11.351562 32.4375 -9.21875 C 31.675781 -7.082031 30.625 -5.273438 29.28125 -3.796875 C 27.9375 -2.328125 26.3125 -1.21875 24.40625 -0.46875 C 22.507812 0.269531 20.453125 0.640625 18.234375 0.640625 Z M 18.234375 -3.84375 C 19.773438 -3.84375 21.1875 -4.117188 22.46875 -4.671875 C 23.75 -5.222656 24.859375 -6.039062 25.796875 -7.125 C 26.734375 -8.21875 27.46875 -9.550781 28 -11.125 C 28.53125 -12.707031 28.796875 -14.546875 28.796875 -16.640625 C 28.796875 -18.734375 28.53125 -20.566406 28 -22.140625 C 27.46875 -23.722656 26.734375 -25.054688 25.796875 -26.140625 C 24.859375 -27.234375 23.75 -28.054688 22.46875 -28.609375 C 21.1875 -29.160156 19.773438 -29.4375 18.234375 -29.4375 C 16.703125 -29.4375 15.296875 -29.160156 14.015625 -28.609375 C 12.734375 -28.054688 11.625 -27.234375 10.6875 -26.140625 C 9.75 -25.054688 9.015625 -23.722656 8.484375 -22.140625 C 7.953125 -20.566406 7.6875 -18.734375 7.6875 -16.640625 C 7.6875 -14.546875 7.953125 -12.707031 8.484375 -11.125 C 9.015625 -9.550781 9.75 -8.21875 10.6875 -7.125 C 11.625 -6.039062 12.734375 -5.222656 14.015625 -4.671875 C 15.296875 -4.117188 16.703125 -3.84375 18.234375 -3.84375 Z M 18.234375 -3.84375 "/></g></g></g><g fill="#000000" fill-opacity="1"><g transform="translate(555.371607, 1025.585988)"><g><path d="M 4.484375 -33.28125 L 8.3125 -33.28125 L 8.953125 -28.796875 L 9.28125 -28.796875 C 10.257812 -30.421875 11.472656 -31.570312 12.921875 -32.25 C 14.378906 -32.9375 16.148438 -33.28125 18.234375 -33.28125 L 21.765625 -33.28125 L 21.765625 -28.796875 L 18.234375 -28.796875 C 16.953125 -28.796875 15.769531 -28.582031 14.6875 -28.15625 C 13.601562 -27.726562 12.65625 -27.148438 11.84375 -26.421875 C 11.03125 -25.703125 10.398438 -24.828125 9.953125 -23.796875 C 9.503906 -22.773438 9.28125 -21.671875 9.28125 -20.484375 L 9.28125 0 L 4.484375 0 Z M 4.484375 -33.28125 "/></g></g></g><g fill="#000000" fill-opacity="1"><g transform="translate(578.090188, 1025.585988)"><g/></g></g><g fill="#000000" fill-opacity="1"><g transform="translate(592.169349, 1025.585988)"><g><path d="M 15.046875 0 C 12.609375 0 10.609375 -0.773438 9.046875 -2.328125 C 7.492188 -3.890625 6.71875 -5.882812 6.71875 -8.3125 L 6.71875 -28.796875 L 1.59375 -28.796875 L 1.59375 -33.28125 L 6.71875 -33.28125 L 7.359375 -42.234375 L 11.515625 -42.234375 L 11.515625 -33.28125 L 20.15625 -33.28125 L 20.15625 -28.796875 L 11.515625 -28.796875 L 11.515625 -8.3125 C 11.515625 -7.207031 11.878906 -6.289062 12.609375 -5.5625 C 13.335938 -4.84375 14.253906 -4.484375 15.359375 -4.484375 L 20.15625 -4.484375 L 20.15625 0 Z M 15.046875 0 "/></g></g></g><g fill="#000000" fill-opacity="1"><g transform="translate(614.887975, 1025.585988)"><g><path d="M 4.796875 -44.796875 L 9.59375 -44.796875 L 9.59375 -29.125 L 9.921875 -29.125 C 11.023438 -30.914062 12.363281 -32.160156 13.9375 -32.859375 C 15.519531 -33.566406 17.273438 -33.921875 19.203125 -33.921875 C 20.867188 -33.921875 22.457031 -33.617188 23.96875 -33.015625 C 25.476562 -32.421875 26.8125 -31.554688 27.96875 -30.421875 C 29.125 -29.296875 30.03125 -27.898438 30.6875 -26.234375 C 31.351562 -24.578125 31.6875 -22.660156 31.6875 -20.484375 L 31.6875 0 L 26.875 0 L 26.875 -20.484375 C 26.875 -23.378906 26.09375 -25.59375 24.53125 -27.125 C 22.976562 -28.664062 20.988281 -29.4375 18.5625 -29.4375 C 17.28125 -29.4375 16.09375 -29.191406 15 -28.703125 C 13.914062 -28.210938 12.96875 -27.5625 12.15625 -26.75 C 11.34375 -25.9375 10.710938 -24.984375 10.265625 -23.890625 C 9.816406 -22.804688 9.59375 -21.671875 9.59375 -20.484375 L 9.59375 0 L 4.796875 0 Z M 4.796875 -44.796875 "/></g></g></g><g fill="#000000" fill-opacity="1"><g transform="translate(650.725786, 1025.585988)"><g><path d="M 18.234375 0.640625 C 15.972656 0.640625 13.90625 0.269531 12.03125 -0.46875 C 10.15625 -1.21875 8.546875 -2.328125 7.203125 -3.796875 C 5.859375 -5.273438 4.800781 -7.082031 4.03125 -9.21875 C 3.257812 -11.351562 2.875 -13.828125 2.875 -16.640625 C 2.875 -19.453125 3.25 -21.925781 4 -24.0625 C 4.75 -26.195312 5.796875 -28 7.140625 -29.46875 C 8.484375 -30.945312 10.070312 -32.054688 11.90625 -32.796875 C 13.738281 -33.546875 15.742188 -33.921875 17.921875 -33.921875 C 20.484375 -33.921875 22.703125 -33.441406 24.578125 -32.484375 C 26.453125 -31.523438 28.019531 -30.285156 29.28125 -28.765625 C 30.539062 -27.253906 31.46875 -25.59375 32.0625 -23.78125 C 32.65625 -21.96875 32.953125 -20.226562 32.953125 -18.5625 C 32.953125 -18.09375 32.929688 -17.664062 32.890625 -17.28125 C 32.847656 -16.894531 32.804688 -16.550781 32.765625 -16.25 C 32.722656 -15.914062 32.679688 -15.617188 32.640625 -15.359375 L 7.6875 -15.359375 C 7.851562 -11.515625 8.925781 -8.632812 10.90625 -6.71875 C 12.894531 -4.800781 15.335938 -3.84375 18.234375 -3.84375 C 22.078125 -3.84375 24.957031 -5.441406 26.875 -8.640625 L 32 -8.640625 C 30.894531 -5.566406 29.125 -3.25 26.6875 -1.6875 C 24.257812 -0.132812 21.441406 0.640625 18.234375 0.640625 Z M 28.15625 -19.515625 C 27.8125 -22.710938 26.703125 -25.164062 24.828125 -26.875 C 22.953125 -28.582031 20.648438 -29.4375 17.921875 -29.4375 C 15.191406 -29.4375 12.882812 -28.582031 11 -26.875 C 9.125 -25.164062 8.019531 -22.710938 7.6875 -19.515625 Z M 28.15625 -19.515625 "/></g></g></g><g fill="#000000" fill-opacity="1"><g transform="translate(686.563597, 1025.585988)"><g/></g></g><g fill="#000000" fill-opacity="1"><g transform="translate(700.642759, 1025.585988)"><g><path d="M 18.234375 0.640625 C 15.972656 0.640625 13.90625 0.269531 12.03125 -0.46875 C 10.15625 -1.21875 8.546875 -2.328125 7.203125 -3.796875 C 5.859375 -5.273438 4.800781 -7.082031 4.03125 -9.21875 C 3.257812 -11.351562 2.875 -13.828125 2.875 -16.640625 C 2.875 -19.453125 3.257812 -21.925781 4.03125 -24.0625 C 4.800781 -26.195312 5.859375 -28 7.203125 -29.46875 C 8.546875 -30.945312 10.15625 -32.054688 12.03125 -32.796875 C 13.90625 -33.546875 15.972656 -33.921875 18.234375 -33.921875 C 20.453125 -33.921875 22.507812 -33.546875 24.40625 -32.796875 C 26.3125 -32.054688 27.9375 -30.945312 29.28125 -29.46875 C 30.625 -28 31.675781 -26.195312 32.4375 -24.0625 C 33.207031 -21.925781 33.59375 -19.453125 33.59375 -16.640625 C 33.59375 -13.828125 33.207031 -11.351562 32.4375 -9.21875 C 31.675781 -7.082031 30.625 -5.273438 29.28125 -3.796875 C 27.9375 -2.328125 26.3125 -1.21875 24.40625 -0.46875 C 22.507812 0.269531 20.453125 0.640625 18.234375 0.640625 Z M 18.234375 -3.84375 C 19.773438 -3.84375 21.1875 -4.117188 22.46875 -4.671875 C 23.75 -5.222656 24.859375 -6.039062 25.796875 -7.125 C 26.734375 -8.21875 27.46875 -9.550781 28 -11.125 C 28.53125 -12.707031 28.796875 -14.546875 28.796875 -16.640625 C 28.796875 -18.734375 28.53125 -20.566406 28 -22.140625 C 27.46875 -23.722656 26.734375 -25.054688 25.796875 -26.140625 C 24.859375 -27.234375 23.75 -28.054688 22.46875 -28.609375 C 21.1875 -29.160156 19.773438 -29.4375 18.234375 -29.4375 C 16.703125 -29.4375 15.296875 -29.160156 14.015625 -28.609375 C 12.734375 -28.054688 11.625 -27.234375 10.6875 -26.140625 C 9.75 -25.054688 9.015625 -23.722656 8.484375 -22.140625 C 7.953125 -20.566406 7.6875 -18.734375 7.6875 -16.640625 C 7.6875 -14.546875 7.953125 -12.707031 8.484375 -11.125 C 9.015625 -9.550781 9.75 -8.21875 10.6875 -7.125 C 11.625 -6.039062 12.734375 -5.222656 14.015625 -4.671875 C 15.296875 -4.117188 16.703125 -3.84375 18.234375 -3.84375 Z M 18.234375 -3.84375 "/></g></g></g><g fill="#000000" fill-opacity="1"><g transform="translate(737.120523, 1025.585988)"><g><path d="M 6.71875 -28.796875 L 1.59375 -28.796875 L 1.59375 -33.28125 L 6.71875 -33.28125 L 6.71875 -36.484375 C 6.71875 -38.910156 7.492188 -40.898438 9.046875 -42.453125 C 10.609375 -44.015625 12.609375 -44.796875 15.046875 -44.796875 L 20.15625 -44.796875 L 20.15625 -40.3125 L 15.359375 -40.3125 C 14.253906 -40.3125 13.335938 -39.945312 12.609375 -39.21875 C 11.878906 -38.5 11.515625 -37.585938 11.515625 -36.484375 L 11.515625 -33.28125 L 20.15625 -33.28125 L 20.15625 -28.796875 L 11.515625 -28.796875 L 11.515625 0 L 6.71875 0 Z M 6.71875 -28.796875 "/></g></g></g><g fill="#000000" fill-opacity="1"><g transform="translate(758.559197, 1025.585988)"><g><path d="M 6.71875 -28.796875 L 1.59375 -28.796875 L 1.59375 -33.28125 L 6.71875 -33.28125 L 6.71875 -36.484375 C 6.71875 -38.910156 7.492188 -40.898438 9.046875 -42.453125 C 10.609375 -44.015625 12.609375 -44.796875 15.046875 -44.796875 L 20.15625 -44.796875 L 20.15625 -40.3125 L 15.359375 -40.3125 C 14.253906 -40.3125 13.335938 -39.945312 12.609375 -39.21875 C 11.878906 -38.5 11.515625 -37.585938 11.515625 -36.484375 L 11.515625 -33.28125 L 20.15625 -33.28125 L 20.15625 -28.796875 L 11.515625 -28.796875 L 11.515625 0 L 6.71875 0 Z M 6.71875 -28.796875 "/></g></g></g><g fill="#000000" fill-opacity="1"><g transform="translate(779.99787, 1025.585988)"><g><path d="M 4.484375 -33.28125 L 9.28125 -33.28125 L 9.28125 0 L 4.484375 0 Z M 6.90625 -38.078125 C 5.96875 -38.078125 5.164062 -38.394531 4.5 -39.03125 C 3.84375 -39.675781 3.515625 -40.46875 3.515625 -41.40625 C 3.515625 -42.34375 3.832031 -43.140625 4.46875 -43.796875 C 5.113281 -44.460938 5.925781 -44.796875 6.90625 -44.796875 C 7.84375 -44.796875 8.628906 -44.460938 9.265625 -43.796875 C 9.910156 -43.140625 10.234375 -42.34375 10.234375 -41.40625 C 10.234375 -40.507812 9.910156 -39.726562 9.265625 -39.0625 C 8.628906 -38.40625 7.84375 -38.078125 6.90625 -38.078125 Z M 6.90625 -38.078125 "/></g></g></g><g fill="#000000" fill-opacity="1"><g transform="translate(793.757009, 1025.585988)"><g><path d="M 18.234375 0.640625 C 15.972656 0.640625 13.90625 0.269531 12.03125 -0.46875 C 10.15625 -1.21875 8.546875 -2.328125 7.203125 -3.796875 C 5.859375 -5.273438 4.800781 -7.082031 4.03125 -9.21875 C 3.257812 -11.351562 2.875 -13.828125 2.875 -16.640625 C 2.875 -19.453125 3.257812 -21.925781 4.03125 -24.0625 C 4.800781 -26.195312 5.859375 -28 7.203125 -29.46875 C 8.546875 -30.945312 10.15625 -32.054688 12.03125 -32.796875 C 13.90625 -33.546875 15.972656 -33.921875 18.234375 -33.921875 C 21.441406 -33.921875 24.257812 -33.140625 26.6875 -31.578125 C 29.125 -30.023438 30.894531 -27.710938 32 -24.640625 L 26.875 -24.640625 C 24.957031 -27.835938 22.078125 -29.4375 18.234375 -29.4375 C 16.703125 -29.4375 15.296875 -29.160156 14.015625 -28.609375 C 12.734375 -28.054688 11.625 -27.234375 10.6875 -26.140625 C 9.75 -25.054688 9.015625 -23.722656 8.484375 -22.140625 C 7.953125 -20.566406 7.6875 -18.734375 7.6875 -16.640625 C 7.6875 -14.546875 7.953125 -12.707031 8.484375 -11.125 C 9.015625 -9.550781 9.75 -8.21875 10.6875 -7.125 C 11.625 -6.039062 12.734375 -5.222656 14.015625 -4.671875 C 15.296875 -4.117188 16.703125 -3.84375 18.234375 -3.84375 C 22.078125 -3.84375 24.957031 -5.441406 26.875 -8.640625 L 32 -8.640625 C 30.894531 -5.566406 29.125 -3.25 26.6875 -1.6875 C 24.257812 -0.132812 21.441406 0.640625 18.234375 0.640625 Z M 18.234375 0.640625 "/></g></g></g><g fill="#000000" fill-opacity="1"><g transform="translate(827.99489, 1025.585988)"><g><path d="M 4.484375 -33.28125 L 9.28125 -33.28125 L 9.28125 0 L 4.484375 0 Z M 6.90625 -38.078125 C 5.96875 -38.078125 5.164062 -38.394531 4.5 -39.03125 C 3.84375 -39.675781 3.515625 -40.46875 3.515625 -41.40625 C 3.515625 -42.34375 3.832031 -43.140625 4.46875 -43.796875 C 5.113281 -44.460938 5.925781 -44.796875 6.90625 -44.796875 C 7.84375 -44.796875 8.628906 -44.460938 9.265625 -43.796875 C 9.910156 -43.140625 10.234375 -42.34375 10.234375 -41.40625 C 10.234375 -40.507812 9.910156 -39.726562 9.265625 -39.0625 C 8.628906 -38.40625 7.84375 -38.078125 6.90625 -38.078125 Z M 6.90625 -38.078125 "/></g></g></g><g fill="#000000" fill-opacity="1"><g transform="translate(841.754029, 1025.585988)"><g><path d="M 14.078125 0.640625 C 12.328125 0.640625 10.738281 0.375 9.3125 -0.15625 C 7.882812 -0.6875 6.664062 -1.410156 5.65625 -2.328125 C 4.65625 -3.253906 3.890625 -4.332031 3.359375 -5.5625 C 2.828125 -6.800781 2.5625 -8.144531 2.5625 -9.59375 C 2.5625 -11.050781 2.835938 -12.394531 3.390625 -13.625 C 3.941406 -14.863281 4.738281 -15.941406 5.78125 -16.859375 C 6.832031 -17.773438 8.132812 -18.5 9.6875 -19.03125 C 11.25 -19.570312 13.035156 -19.84375 15.046875 -19.84375 L 24.3125 -19.84375 L 24.3125 -22.078125 C 24.3125 -24.335938 23.585938 -26.128906 22.140625 -27.453125 C 20.691406 -28.773438 18.75 -29.4375 16.3125 -29.4375 C 14.226562 -29.4375 12.546875 -29 11.265625 -28.125 C 9.984375 -27.25 9.109375 -26.085938 8.640625 -24.640625 L 3.515625 -24.640625 C 4.328125 -27.710938 5.863281 -30.023438 8.125 -31.578125 C 10.382812 -33.140625 13.113281 -33.921875 16.3125 -33.921875 C 18.320312 -33.921875 20.113281 -33.628906 21.6875 -33.046875 C 23.269531 -32.472656 24.613281 -31.675781 25.71875 -30.65625 C 26.832031 -29.632812 27.675781 -28.394531 28.25 -26.9375 C 28.832031 -25.488281 29.125 -23.867188 29.125 -22.078125 L 29.125 0 L 25.28125 0 L 24.640625 -4.484375 L 24.3125 -4.484375 C 23.976562 -3.921875 23.5 -3.34375 22.875 -2.75 C 22.257812 -2.15625 21.515625 -1.597656 20.640625 -1.078125 C 19.765625 -0.566406 18.769531 -0.15625 17.65625 0.15625 C 16.550781 0.476562 15.359375 0.640625 14.078125 0.640625 Z M 14.078125 -3.84375 C 15.660156 -3.84375 17.085938 -4.085938 18.359375 -4.578125 C 19.640625 -5.066406 20.71875 -5.726562 21.59375 -6.5625 C 22.46875 -7.394531 23.140625 -8.375 23.609375 -9.5 C 24.078125 -10.632812 24.3125 -11.84375 24.3125 -13.125 L 24.3125 -15.359375 L 15.046875 -15.359375 C 12.484375 -15.359375 10.5625 -14.84375 9.28125 -13.8125 C 8 -12.789062 7.359375 -11.382812 7.359375 -9.59375 C 7.359375 -7.800781 7.953125 -6.394531 9.140625 -5.375 C 10.335938 -4.351562 11.984375 -3.84375 14.078125 -3.84375 Z M 14.078125 -3.84375 "/></g></g></g><g fill="#000000" fill-opacity="1"><g transform="translate(875.03198, 1025.585988)"><g><path d="M 4.796875 -44.796875 L 9.59375 -44.796875 L 9.59375 0 L 4.796875 0 Z M 4.796875 -44.796875 "/></g></g></g><g fill="#000000" fill-opacity="1"><g transform="translate(889.431073, 1025.585988)"><g/></g></g><g fill="#000000" fill-opacity="1"><g transform="translate(903.510234, 1025.585988)"><g><path d="M 4.484375 -33.28125 L 8.3125 -33.28125 L 8.953125 -28.796875 L 9.28125 -28.796875 C 10.382812 -30.421875 11.863281 -31.679688 13.71875 -32.578125 C 15.582031 -33.472656 17.726562 -33.921875 20.15625 -33.921875 C 22.25 -33.921875 24.171875 -33.546875 25.921875 -32.796875 C 27.671875 -32.054688 29.1875 -30.945312 30.46875 -29.46875 C 31.75 -28 32.75 -26.195312 33.46875 -24.0625 C 34.195312 -21.925781 34.5625 -19.453125 34.5625 -16.640625 C 34.5625 -13.828125 34.195312 -11.351562 33.46875 -9.21875 C 32.75 -7.082031 31.75 -5.273438 30.46875 -3.796875 C 29.1875 -2.328125 27.671875 -1.21875 25.921875 -0.46875 C 24.171875 0.269531 22.25 0.640625 20.15625 0.640625 C 17.726562 0.640625 15.640625 0.203125 13.890625 -0.671875 C 12.140625 -1.546875 10.707031 -2.707031 9.59375 -4.15625 L 9.28125 -4.15625 L 9.28125 12.796875 L 4.484375 12.796875 Z M 19.515625 -3.84375 C 22.585938 -3.84375 25.0625 -4.929688 26.9375 -7.109375 C 28.820312 -9.285156 29.765625 -12.460938 29.765625 -16.640625 C 29.765625 -20.816406 28.820312 -23.992188 26.9375 -26.171875 C 25.0625 -28.347656 22.585938 -29.4375 19.515625 -29.4375 C 16.441406 -29.4375 13.96875 -28.347656 12.09375 -26.171875 C 10.21875 -23.992188 9.28125 -20.816406 9.28125 -16.640625 C 9.28125 -12.460938 10.21875 -9.285156 12.09375 -7.109375 C 13.96875 -4.929688 16.441406 -3.84375 19.515625 -3.84375 Z M 19.515625 -3.84375 "/></g></g></g><g fill="#000000" fill-opacity="1"><g transform="translate(940.947975, 1025.585988)"><g><path d="M 16.953125 0.640625 C 15.210938 0.640625 13.570312 0.332031 12.03125 -0.28125 C 10.5 -0.90625 9.175781 -1.789062 8.0625 -2.9375 C 6.957031 -4.09375 6.082031 -5.5 5.4375 -7.15625 C 4.800781 -8.820312 4.484375 -10.703125 4.484375 -12.796875 L 4.484375 -33.28125 L 9.28125 -33.28125 L 9.28125 -12.796875 C 9.28125 -9.898438 10.054688 -7.679688 11.609375 -6.140625 C 13.171875 -4.609375 15.164062 -3.84375 17.59375 -3.84375 C 18.875 -3.84375 20.054688 -4.085938 21.140625 -4.578125 C 22.234375 -5.066406 23.1875 -5.71875 24 -6.53125 C 24.8125 -7.34375 25.441406 -8.289062 25.890625 -9.375 C 26.335938 -10.46875 26.5625 -11.609375 26.5625 -12.796875 L 26.5625 -33.28125 L 31.359375 -33.28125 L 31.359375 0 L 27.515625 0 L 26.875 -4.484375 L 26.5625 -4.484375 C 25.445312 -2.554688 24.003906 -1.21875 22.234375 -0.46875 C 20.460938 0.269531 18.703125 0.640625 16.953125 0.640625 Z M 16.953125 0.640625 "/></g></g></g><g fill="#000000" fill-opacity="1"><g transform="translate(976.78574, 1025.585988)"><g><path d="M 20.484375 0.640625 C 18.046875 0.640625 15.898438 0.191406 14.046875 -0.703125 C 12.191406 -1.597656 10.707031 -2.859375 9.59375 -4.484375 L 9.28125 -4.484375 L 8.640625 0 L 4.796875 0 L 4.796875 -44.796875 L 9.59375 -44.796875 L 9.59375 -29.125 L 9.921875 -29.125 C 11.023438 -30.570312 12.453125 -31.734375 14.203125 -32.609375 C 15.953125 -33.484375 18.046875 -33.921875 20.484375 -33.921875 C 22.566406 -33.921875 24.484375 -33.546875 26.234375 -32.796875 C 27.984375 -32.054688 29.5 -30.945312 30.78125 -29.46875 C 32.0625 -28 33.0625 -26.195312 33.78125 -24.0625 C 34.507812 -21.925781 34.875 -19.453125 34.875 -16.640625 C 34.875 -13.828125 34.507812 -11.351562 33.78125 -9.21875 C 33.0625 -7.082031 32.0625 -5.273438 30.78125 -3.796875 C 29.5 -2.328125 27.984375 -1.21875 26.234375 -0.46875 C 24.484375 0.269531 22.566406 0.640625 20.484375 0.640625 Z M 19.84375 -3.84375 C 22.914062 -3.84375 25.390625 -4.929688 27.265625 -7.109375 C 29.140625 -9.285156 30.078125 -12.460938 30.078125 -16.640625 C 30.078125 -20.816406 29.140625 -23.992188 27.265625 -26.171875 C 25.390625 -28.347656 22.914062 -29.4375 19.84375 -29.4375 C 16.769531 -29.4375 14.289062 -28.347656 12.40625 -26.171875 C 10.53125 -23.992188 9.59375 -20.816406 9.59375 -16.640625 C 9.59375 -12.460938 10.53125 -9.285156 12.40625 -7.109375 C 14.289062 -4.929688 16.769531 -3.84375 19.84375 -3.84375 Z M 19.84375 -3.84375 "/></g></g></g><g fill="#000000" fill-opacity="1"><g transform="translate(1014.543458, 1025.585988)"><g><path d="M 4.796875 -44.796875 L 9.59375 -44.796875 L 9.59375 0 L 4.796875 0 Z M 4.796875 -44.796875 "/></g></g></g><g fill="#000000" fill-opacity="1"><g transform="translate(1028.942597, 1025.585988)"><g><path d="M 4.484375 -33.28125 L 9.28125 -33.28125 L 9.28125 0 L 4.484375 0 Z M 6.90625 -38.078125 C 5.96875 -38.078125 5.164062 -38.394531 4.5 -39.03125 C 3.84375 -39.675781 3.515625 -40.46875 3.515625 -41.40625 C 3.515625 -42.34375 3.832031 -43.140625 4.46875 -43.796875 C 5.113281 -44.460938 5.925781 -44.796875 6.90625 -44.796875 C 7.84375 -44.796875 8.628906 -44.460938 9.265625 -43.796875 C 9.910156 -43.140625 10.234375 -42.34375 10.234375 -41.40625 C 10.234375 -40.507812 9.910156 -39.726562 9.265625 -39.0625 C 8.628906 -38.40625 7.84375 -38.078125 6.90625 -38.078125 Z M 6.90625 -38.078125 "/></g></g></g><g fill="#000000" fill-opacity="1"><g transform="translate(1042.701781, 1025.585988)"><g><path d="M 18.234375 0.640625 C 15.972656 0.640625 13.90625 0.269531 12.03125 -0.46875 C 10.15625 -1.21875 8.546875 -2.328125 7.203125 -3.796875 C 5.859375 -5.273438 4.800781 -7.082031 4.03125 -9.21875 C 3.257812 -11.351562 2.875 -13.828125 2.875 -16.640625 C 2.875 -19.453125 3.257812 -21.925781 4.03125 -24.0625 C 4.800781 -26.195312 5.859375 -28 7.203125 -29.46875 C 8.546875 -30.945312 10.15625 -32.054688 12.03125 -32.796875 C 13.90625 -33.546875 15.972656 -33.921875 18.234375 -33.921875 C 21.441406 -33.921875 24.257812 -33.140625 26.6875 -31.578125 C 29.125 -30.023438 30.894531 -27.710938 32 -24.640625 L 26.875 -24.640625 C 24.957031 -27.835938 22.078125 -29.4375 18.234375 -29.4375 C 16.703125 -29.4375 15.296875 -29.160156 14.015625 -28.609375 C 12.734375 -28.054688 11.625 -27.234375 10.6875 -26.140625 C 9.75 -25.054688 9.015625 -23.722656 8.484375 -22.140625 C 7.953125 -20.566406 7.6875 -18.734375 7.6875 -16.640625 C 7.6875 -14.546875 7.953125 -12.707031 8.484375 -11.125 C 9.015625 -9.550781 9.75 -8.21875 10.6875 -7.125 C 11.625 -6.039062 12.734375 -5.222656 14.015625 -4.671875 C 15.296875 -4.117188 16.703125 -3.84375 18.234375 -3.84375 C 22.078125 -3.84375 24.957031 -5.441406 26.875 -8.640625 L 32 -8.640625 C 30.894531 -5.566406 29.125 -3.25 26.6875 -1.6875 C 24.257812 -0.132812 21.441406 0.640625 18.234375 0.640625 Z M 18.234375 0.640625 "/></g></g></g><g fill="#000000" fill-opacity="1"><g transform="translate(1076.939663, 1025.585988)"><g/></g></g><g fill="#000000" fill-opacity="1"><g transform="translate(1091.018825, 1025.585988)"><g><path d="M 4.484375 -33.28125 L 8.3125 -33.28125 L 8.953125 -28.796875 L 9.28125 -28.796875 C 10.257812 -30.421875 11.472656 -31.570312 12.921875 -32.25 C 14.378906 -32.9375 16.148438 -33.28125 18.234375 -33.28125 L 21.765625 -33.28125 L 21.765625 -28.796875 L 18.234375 -28.796875 C 16.953125 -28.796875 15.769531 -28.582031 14.6875 -28.15625 C 13.601562 -27.726562 12.65625 -27.148438 11.84375 -26.421875 C 11.03125 -25.703125 10.398438 -24.828125 9.953125 -23.796875 C 9.503906 -22.773438 9.28125 -21.671875 9.28125 -20.484375 L 9.28125 0 L 4.484375 0 Z M 4.484375 -33.28125 "/></g></g></g><g fill="#000000" fill-opacity="1"><g transform="translate(1113.737451, 1025.585988)"><g><path d="M 18.234375 0.640625 C 15.972656 0.640625 13.90625 0.269531 12.03125 -0.46875 C 10.15625 -1.21875 8.546875 -2.328125 7.203125 -3.796875 C 5.859375 -5.273438 4.800781 -7.082031 4.03125 -9.21875 C 3.257812 -11.351562 2.875 -13.828125 2.875 -16.640625 C 2.875 -19.453125 3.25 -21.925781 4 -24.0625 C 4.75 -26.195312 5.796875 -28 7.140625 -29.46875 C 8.484375 -30.945312 10.070312 -32.054688 11.90625 -32.796875 C 13.738281 -33.546875 15.742188 -33.921875 17.921875 -33.921875 C 20.484375 -33.921875 22.703125 -33.441406 24.578125 -32.484375 C 26.453125 -31.523438 28.019531 -30.285156 29.28125 -28.765625 C 30.539062 -27.253906 31.46875 -25.59375 32.0625 -23.78125 C 32.65625 -21.96875 32.953125 -20.226562 32.953125 -18.5625 C 32.953125 -18.09375 32.929688 -17.664062 32.890625 -17.28125 C 32.847656 -16.894531 32.804688 -16.550781 32.765625 -16.25 C 32.722656 -15.914062 32.679688 -15.617188 32.640625 -15.359375 L 7.6875 -15.359375 C 7.851562 -11.515625 8.925781 -8.632812 10.90625 -6.71875 C 12.894531 -4.800781 15.335938 -3.84375 18.234375 -3.84375 C 22.078125 -3.84375 24.957031 -5.441406 26.875 -8.640625 L 32 -8.640625 C 30.894531 -5.566406 29.125 -3.25 26.6875 -1.6875 C 24.257812 -0.132812 21.441406 0.640625 18.234375 0.640625 Z M 28.15625 -19.515625 C 27.8125 -22.710938 26.703125 -25.164062 24.828125 -26.875 C 22.953125 -28.582031 20.648438 -29.4375 17.921875 -29.4375 C 15.191406 -29.4375 12.882812 -28.582031 11 -26.875 C 9.125 -25.164062 8.019531 -22.710938 7.6875 -19.515625 Z M 28.15625 -19.515625 "/></g></g></g><g fill="#000000" fill-opacity="1"><g transform="translate(1149.575216, 1025.585988)"><g><path d="M 4.796875 -44.796875 L 9.59375 -44.796875 L 9.59375 0 L 4.796875 0 Z M 4.796875 -44.796875 "/></g></g></g><g fill="#000000" fill-opacity="1"><g transform="translate(1163.974354, 1025.585988)"><g><path d="M 18.234375 0.640625 C 15.972656 0.640625 13.90625 0.269531 12.03125 -0.46875 C 10.15625 -1.21875 8.546875 -2.328125 7.203125 -3.796875 C 5.859375 -5.273438 4.800781 -7.082031 4.03125 -9.21875 C 3.257812 -11.351562 2.875 -13.828125 2.875 -16.640625 C 2.875 -19.453125 3.25 -21.925781 4 -24.0625 C 4.75 -26.195312 5.796875 -28 7.140625 -29.46875 C 8.484375 -30.945312 10.070312 -32.054688 11.90625 -32.796875 C 13.738281 -33.546875 15.742188 -33.921875 17.921875 -33.921875 C 20.484375 -33.921875 22.703125 -33.441406 24.578125 -32.484375 C 26.453125 -31.523438 28.019531 -30.285156 29.28125 -28.765625 C 30.539062 -27.253906 31.46875 -25.59375 32.0625 -23.78125 C 32.65625 -21.96875 32.953125 -20.226562 32.953125 -18.5625 C 32.953125 -18.09375 32.929688 -17.664062 32.890625 -17.28125 C 32.847656 -16.894531 32.804688 -16.550781 32.765625 -16.25 C 32.722656 -15.914062 32.679688 -15.617188 32.640625 -15.359375 L 7.6875 -15.359375 C 7.851562 -11.515625 8.925781 -8.632812 10.90625 -6.71875 C 12.894531 -4.800781 15.335938 -3.84375 18.234375 -3.84375 C 22.078125 -3.84375 24.957031 -5.441406 26.875 -8.640625 L 32 -8.640625 C 30.894531 -5.566406 29.125 -3.25 26.6875 -1.6875 C 24.257812 -0.132812 21.441406 0.640625 18.234375 0.640625 Z M 28.15625 -19.515625 C 27.8125 -22.710938 26.703125 -25.164062 24.828125 -26.875 C 22.953125 -28.582031 20.648438 -29.4375 17.921875 -29.4375 C 15.191406 -29.4375 12.882812 -28.582031 11 -26.875 C 9.125 -25.164062 8.019531 -22.710938 7.6875 -19.515625 Z M 28.15625 -19.515625 "/></g></g></g><g fill="#000000" fill-opacity="1"><g transform="translate(1199.81212, 1025.585988)"><g><path d="M 14.078125 0.640625 C 12.328125 0.640625 10.738281 0.375 9.3125 -0.15625 C 7.882812 -0.6875 6.664062 -1.410156 5.65625 -2.328125 C 4.65625 -3.253906 3.890625 -4.332031 3.359375 -5.5625 C 2.828125 -6.800781 2.5625 -8.144531 2.5625 -9.59375 C 2.5625 -11.050781 2.835938 -12.394531 3.390625 -13.625 C 3.941406 -14.863281 4.738281 -15.941406 5.78125 -16.859375 C 6.832031 -17.773438 8.132812 -18.5 9.6875 -19.03125 C 11.25 -19.570312 13.035156 -19.84375 15.046875 -19.84375 L 24.3125 -19.84375 L 24.3125 -22.078125 C 24.3125 -24.335938 23.585938 -26.128906 22.140625 -27.453125 C 20.691406 -28.773438 18.75 -29.4375 16.3125 -29.4375 C 14.226562 -29.4375 12.546875 -29 11.265625 -28.125 C 9.984375 -27.25 9.109375 -26.085938 8.640625 -24.640625 L 3.515625 -24.640625 C 4.328125 -27.710938 5.863281 -30.023438 8.125 -31.578125 C 10.382812 -33.140625 13.113281 -33.921875 16.3125 -33.921875 C 18.320312 -33.921875 20.113281 -33.628906 21.6875 -33.046875 C 23.269531 -32.472656 24.613281 -31.675781 25.71875 -30.65625 C 26.832031 -29.632812 27.675781 -28.394531 28.25 -26.9375 C 28.832031 -25.488281 29.125 -23.867188 29.125 -22.078125 L 29.125 0 L 25.28125 0 L 24.640625 -4.484375 L 24.3125 -4.484375 C 23.976562 -3.921875 23.5 -3.34375 22.875 -2.75 C 22.257812 -2.15625 21.515625 -1.597656 20.640625 -1.078125 C 19.765625 -0.566406 18.769531 -0.15625 17.65625 0.15625 C 16.550781 0.476562 15.359375 0.640625 14.078125 0.640625 Z M 14.078125 -3.84375 C 15.660156 -3.84375 17.085938 -4.085938 18.359375 -4.578125 C 19.640625 -5.066406 20.71875 -5.726562 21.59375 -6.5625 C 22.46875 -7.394531 23.140625 -8.375 23.609375 -9.5 C 24.078125 -10.632812 24.3125 -11.84375 24.3125 -13.125 L 24.3125 -15.359375 L 15.046875 -15.359375 C 12.484375 -15.359375 10.5625 -14.84375 9.28125 -13.8125 C 8 -12.789062 7.359375 -11.382812 7.359375 -9.59375 C 7.359375 -7.800781 7.953125 -6.394531 9.140625 -5.375 C 10.335938 -4.351562 11.984375 -3.84375 14.078125 -3.84375 Z M 14.078125 -3.84375 "/></g></g></g><g fill="#000000" fill-opacity="1"><g transform="translate(1233.09007, 1025.585988)"><g><path d="M 15.046875 0.640625 C 11.671875 0.640625 8.851562 -0.222656 6.59375 -1.953125 C 4.332031 -3.679688 2.878906 -5.910156 2.234375 -8.640625 L 7.359375 -8.640625 C 7.828125 -7.015625 8.773438 -5.804688 10.203125 -5.015625 C 11.640625 -4.234375 13.253906 -3.84375 15.046875 -3.84375 C 17.773438 -3.84375 19.789062 -4.332031 21.09375 -5.3125 C 22.394531 -6.289062 23.046875 -7.503906 23.046875 -8.953125 C 23.046875 -10.328125 22.550781 -11.363281 21.5625 -12.0625 C 20.582031 -12.769531 19.359375 -13.328125 17.890625 -13.734375 C 16.421875 -14.140625 14.832031 -14.519531 13.125 -14.875 C 11.414062 -15.238281 9.820312 -15.757812 8.34375 -16.4375 C 6.875 -17.125 5.648438 -18.097656 4.671875 -19.359375 C 3.691406 -20.617188 3.203125 -22.378906 3.203125 -24.640625 C 3.203125 -25.835938 3.46875 -26.988281 4 -28.09375 C 4.53125 -29.207031 5.304688 -30.203125 6.328125 -31.078125 C 7.359375 -31.953125 8.609375 -32.644531 10.078125 -33.15625 C 11.546875 -33.664062 13.203125 -33.921875 15.046875 -33.921875 C 16.492188 -33.921875 17.878906 -33.738281 19.203125 -33.375 C 20.523438 -33.007812 21.726562 -32.472656 22.8125 -31.765625 C 23.90625 -31.066406 24.820312 -30.203125 25.5625 -29.171875 C 26.3125 -28.148438 26.859375 -26.957031 27.203125 -25.59375 L 22.078125 -25.59375 C 21.609375 -26.707031 20.796875 -27.625 19.640625 -28.34375 C 18.492188 -29.070312 16.960938 -29.4375 15.046875 -29.4375 C 12.609375 -29.4375 10.820312 -29 9.6875 -28.125 C 8.5625 -27.25 8 -26.085938 8 -24.640625 C 8 -23.191406 8.488281 -22.09375 9.46875 -21.34375 C 10.445312 -20.59375 11.671875 -19.992188 13.140625 -19.546875 C 14.617188 -19.097656 16.210938 -18.691406 17.921875 -18.328125 C 19.628906 -17.972656 21.21875 -17.453125 22.6875 -16.765625 C 24.15625 -16.085938 25.378906 -15.148438 26.359375 -13.953125 C 27.347656 -12.753906 27.84375 -11.085938 27.84375 -8.953125 C 27.84375 -7.679688 27.550781 -6.46875 26.96875 -5.3125 C 26.394531 -4.15625 25.550781 -3.128906 24.4375 -2.234375 C 23.332031 -1.335938 21.988281 -0.632812 20.40625 -0.125 C 18.832031 0.382812 17.046875 0.640625 15.046875 0.640625 Z M 15.046875 0.640625 "/></g></g></g><g fill="#000000" fill-opacity="1"><g transform="translate(1263.168254, 1025.585988)"><g><path d="M 18.234375 0.640625 C 15.972656 0.640625 13.90625 0.269531 12.03125 -0.46875 C 10.15625 -1.21875 8.546875 -2.328125 7.203125 -3.796875 C 5.859375 -5.273438 4.800781 -7.082031 4.03125 -9.21875 C 3.257812 -11.351562 2.875 -13.828125 2.875 -16.640625 C 2.875 -19.453125 3.25 -21.925781 4 -24.0625 C 4.75 -26.195312 5.796875 -28 7.140625 -29.46875 C 8.484375 -30.945312 10.070312 -32.054688 11.90625 -32.796875 C 13.738281 -33.546875 15.742188 -33.921875 17.921875 -33.921875 C 20.484375 -33.921875 22.703125 -33.441406 24.578125 -32.484375 C 26.453125 -31.523438 28.019531 -30.285156 29.28125 -28.765625 C 30.539062 -27.253906 31.46875 -25.59375 32.0625 -23.78125 C 32.65625 -21.96875 32.953125 -20.226562 32.953125 -18.5625 C 32.953125 -18.09375 32.929688 -17.664062 32.890625 -17.28125 C 32.847656 -16.894531 32.804688 -16.550781 32.765625 -16.25 C 32.722656 -15.914062 32.679688 -15.617188 32.640625 -15.359375 L 7.6875 -15.359375 C 7.851562 -11.515625 8.925781 -8.632812 10.90625 -6.71875 C 12.894531 -4.800781 15.335938 -3.84375 18.234375 -3.84375 C 22.078125 -3.84375 24.957031 -5.441406 26.875 -8.640625 L 32 -8.640625 C 30.894531 -5.566406 29.125 -3.25 26.6875 -1.6875 C 24.257812 -0.132812 21.441406 0.640625 18.234375 0.640625 Z M 28.15625 -19.515625 C 27.8125 -22.710938 26.703125 -25.164062 24.828125 -26.875 C 22.953125 -28.582031 20.648438 -29.4375 17.921875 -29.4375 C 15.191406 -29.4375 12.882812 -28.582031 11 -26.875 C 9.125 -25.164062 8.019531 -22.710938 7.6875 -19.515625 Z M 28.15625 -19.515625 "/></g></g></g><g fill="#000000" fill-opacity="1"><g transform="translate(1299.006019, 1025.585988)"><g/></g></g><g fill="#000000" fill-opacity="1"><g transform="translate(1313.085181, 1025.585988)"><g><path d="M 15.046875 0 C 12.609375 0 10.609375 -0.773438 9.046875 -2.328125 C 7.492188 -3.890625 6.71875 -5.882812 6.71875 -8.3125 L 6.71875 -28.796875 L 1.59375 -28.796875 L 1.59375 -33.28125 L 6.71875 -33.28125 L 7.359375 -42.234375 L 11.515625 -42.234375 L 11.515625 -33.28125 L 20.15625 -33.28125 L 20.15625 -28.796875 L 11.515625 -28.796875 L 11.515625 -8.3125 C 11.515625 -7.207031 11.878906 -6.289062 12.609375 -5.5625 C 13.335938 -4.84375 14.253906 -4.484375 15.359375 -4.484375 L 20.15625 -4.484375 L 20.15625 0 Z M 15.046875 0 "/></g></g></g><g fill="#000000" fill-opacity="1"><g transform="translate(1335.803807, 1025.585988)"><g><path d="M 18.234375 0.640625 C 15.972656 0.640625 13.90625 0.269531 12.03125 -0.46875 C 10.15625 -1.21875 8.546875 -2.328125 7.203125 -3.796875 C 5.859375 -5.273438 4.800781 -7.082031 4.03125 -9.21875 C 3.257812 -11.351562 2.875 -13.828125 2.875 -16.640625 C 2.875 -19.453125 3.257812 -21.925781 4.03125 -24.0625 C 4.800781 -26.195312 5.859375 -28 7.203125 -29.46875 C 8.546875 -30.945312 10.15625 -32.054688 12.03125 -32.796875 C 13.90625 -33.546875 15.972656 -33.921875 18.234375 -33.921875 C 20.453125 -33.921875 22.507812 -33.546875 24.40625 -32.796875 C 26.3125 -32.054688 27.9375 -30.945312 29.28125 -29.46875 C 30.625 -28 31.675781 -26.195312 32.4375 -24.0625 C 33.207031 -21.925781 33.59375 -19.453125 33.59375 -16.640625 C 33.59375 -13.828125 33.207031 -11.351562 32.4375 -9.21875 C 31.675781 -7.082031 30.625 -5.273438 29.28125 -3.796875 C 27.9375 -2.328125 26.3125 -1.21875 24.40625 -0.46875 C 22.507812 0.269531 20.453125 0.640625 18.234375 0.640625 Z M 18.234375 -3.84375 C 19.773438 -3.84375 21.1875 -4.117188 22.46875 -4.671875 C 23.75 -5.222656 24.859375 -6.039062 25.796875 -7.125 C 26.734375 -8.21875 27.46875 -9.550781 28 -11.125 C 28.53125 -12.707031 28.796875 -14.546875 28.796875 -16.640625 C 28.796875 -18.734375 28.53125 -20.566406 28 -22.140625 C 27.46875 -23.722656 26.734375 -25.054688 25.796875 -26.140625 C 24.859375 -27.234375 23.75 -28.054688 22.46875 -28.609375 C 21.1875 -29.160156 19.773438 -29.4375 18.234375 -29.4375 C 16.703125 -29.4375 15.296875 -29.160156 14.015625 -28.609375 C 12.734375 -28.054688 11.625 -27.234375 10.6875 -26.140625 C 9.75 -25.054688 9.015625 -23.722656 8.484375 -22.140625 C 7.953125 -20.566406 7.6875 -18.734375 7.6875 -16.640625 C 7.6875 -14.546875 7.953125 -12.707031 8.484375 -11.125 C 9.015625 -9.550781 9.75 -8.21875 10.6875 -7.125 C 11.625 -6.039062 12.734375 -5.222656 14.015625 -4.671875 C 15.296875 -4.117188 16.703125 -3.84375 18.234375 -3.84375 Z M 18.234375 -3.84375 "/></g></g></g><g fill="#000000" fill-opacity="1"><g transform="translate(492.965653, 1090.835982)"><g><path d="M 14.078125 0.640625 C 12.328125 0.640625 10.738281 0.375 9.3125 -0.15625 C 7.882812 -0.6875 6.664062 -1.410156 5.65625 -2.328125 C 4.65625 -3.253906 3.890625 -4.332031 3.359375 -5.5625 C 2.828125 -6.800781 2.5625 -8.144531 2.5625 -9.59375 C 2.5625 -11.050781 2.835938 -12.394531 3.390625 -13.625 C 3.941406 -14.863281 4.738281 -15.941406 5.78125 -16.859375 C 6.832031 -17.773438 8.132812 -18.5 9.6875 -19.03125 C 11.25 -19.570312 13.035156 -19.84375 15.046875 -19.84375 L 24.3125 -19.84375 L 24.3125 -22.078125 C 24.3125 -24.335938 23.585938 -26.128906 22.140625 -27.453125 C 20.691406 -28.773438 18.75 -29.4375 16.3125 -29.4375 C 14.226562 -29.4375 12.546875 -29 11.265625 -28.125 C 9.984375 -27.25 9.109375 -26.085938 8.640625 -24.640625 L 3.515625 -24.640625 C 4.328125 -27.710938 5.863281 -30.023438 8.125 -31.578125 C 10.382812 -33.140625 13.113281 -33.921875 16.3125 -33.921875 C 18.320312 -33.921875 20.113281 -33.628906 21.6875 -33.046875 C 23.269531 -32.472656 24.613281 -31.675781 25.71875 -30.65625 C 26.832031 -29.632812 27.675781 -28.394531 28.25 -26.9375 C 28.832031 -25.488281 29.125 -23.867188 29.125 -22.078125 L 29.125 0 L 25.28125 0 L 24.640625 -4.484375 L 24.3125 -4.484375 C 23.976562 -3.921875 23.5 -3.34375 22.875 -2.75 C 22.257812 -2.15625 21.515625 -1.597656 20.640625 -1.078125 C 19.765625 -0.566406 18.769531 -0.15625 17.65625 0.15625 C 16.550781 0.476562 15.359375 0.640625 14.078125 0.640625 Z M 14.078125 -3.84375 C 15.660156 -3.84375 17.085938 -4.085938 18.359375 -4.578125 C 19.640625 -5.066406 20.71875 -5.726562 21.59375 -6.5625 C 22.46875 -7.394531 23.140625 -8.375 23.609375 -9.5 C 24.078125 -10.632812 24.3125 -11.84375 24.3125 -13.125 L 24.3125 -15.359375 L 15.046875 -15.359375 C 12.484375 -15.359375 10.5625 -14.84375 9.28125 -13.8125 C 8 -12.789062 7.359375 -11.382812 7.359375 -9.59375 C 7.359375 -7.800781 7.953125 -6.394531 9.140625 -5.375 C 10.335938 -4.351562 11.984375 -3.84375 14.078125 -3.84375 Z M 14.078125 -3.84375 "/></g></g></g><g fill="#000000" fill-opacity="1"><g transform="translate(526.243616, 1090.835982)"><g><path d="M 18.234375 0.640625 C 15.972656 0.640625 13.90625 0.269531 12.03125 -0.46875 C 10.15625 -1.21875 8.546875 -2.328125 7.203125 -3.796875 C 5.859375 -5.273438 4.800781 -7.082031 4.03125 -9.21875 C 3.257812 -11.351562 2.875 -13.828125 2.875 -16.640625 C 2.875 -19.453125 3.257812 -21.925781 4.03125 -24.0625 C 4.800781 -26.195312 5.859375 -28 7.203125 -29.46875 C 8.546875 -30.945312 10.15625 -32.054688 12.03125 -32.796875 C 13.90625 -33.546875 15.972656 -33.921875 18.234375 -33.921875 C 21.441406 -33.921875 24.257812 -33.140625 26.6875 -31.578125 C 29.125 -30.023438 30.894531 -27.710938 32 -24.640625 L 26.875 -24.640625 C 24.957031 -27.835938 22.078125 -29.4375 18.234375 -29.4375 C 16.703125 -29.4375 15.296875 -29.160156 14.015625 -28.609375 C 12.734375 -28.054688 11.625 -27.234375 10.6875 -26.140625 C 9.75 -25.054688 9.015625 -23.722656 8.484375 -22.140625 C 7.953125 -20.566406 7.6875 -18.734375 7.6875 -16.640625 C 7.6875 -14.546875 7.953125 -12.707031 8.484375 -11.125 C 9.015625 -9.550781 9.75 -8.21875 10.6875 -7.125 C 11.625 -6.039062 12.734375 -5.222656 14.015625 -4.671875 C 15.296875 -4.117188 16.703125 -3.84375 18.234375 -3.84375 C 22.078125 -3.84375 24.957031 -5.441406 26.875 -8.640625 L 32 -8.640625 C 30.894531 -5.566406 29.125 -3.25 26.6875 -1.6875 C 24.257812 -0.132812 21.441406 0.640625 18.234375 0.640625 Z M 18.234375 0.640625 "/></g></g></g><g fill="#000000" fill-opacity="1"><g transform="translate(560.481509, 1090.835982)"><g><path d="M 18.234375 0.640625 C 15.972656 0.640625 13.90625 0.269531 12.03125 -0.46875 C 10.15625 -1.21875 8.546875 -2.328125 7.203125 -3.796875 C 5.859375 -5.273438 4.800781 -7.082031 4.03125 -9.21875 C 3.257812 -11.351562 2.875 -13.828125 2.875 -16.640625 C 2.875 -19.453125 3.257812 -21.925781 4.03125 -24.0625 C 4.800781 -26.195312 5.859375 -28 7.203125 -29.46875 C 8.546875 -30.945312 10.15625 -32.054688 12.03125 -32.796875 C 13.90625 -33.546875 15.972656 -33.921875 18.234375 -33.921875 C 21.441406 -33.921875 24.257812 -33.140625 26.6875 -31.578125 C 29.125 -30.023438 30.894531 -27.710938 32 -24.640625 L 26.875 -24.640625 C 24.957031 -27.835938 22.078125 -29.4375 18.234375 -29.4375 C 16.703125 -29.4375 15.296875 -29.160156 14.015625 -28.609375 C 12.734375 -28.054688 11.625 -27.234375 10.6875 -26.140625 C 9.75 -25.054688 9.015625 -23.722656 8.484375 -22.140625 C 7.953125 -20.566406 7.6875 -18.734375 7.6875 -16.640625 C 7.6875 -14.546875 7.953125 -12.707031 8.484375 -11.125 C 9.015625 -9.550781 9.75 -8.21875 10.6875 -7.125 C 11.625 -6.039062 12.734375 -5.222656 14.015625 -4.671875 C 15.296875 -4.117188 16.703125 -3.84375 18.234375 -3.84375 C 22.078125 -3.84375 24.957031 -5.441406 26.875 -8.640625 L 32 -8.640625 C 30.894531 -5.566406 29.125 -3.25 26.6875 -1.6875 C 24.257812 -0.132812 21.441406 0.640625 18.234375 0.640625 Z M 18.234375 0.640625 "/></g></g></g><g fill="#000000" fill-opacity="1"><g transform="translate(594.719402, 1090.835982)"><g><path d="M 18.234375 0.640625 C 15.972656 0.640625 13.90625 0.269531 12.03125 -0.46875 C 10.15625 -1.21875 8.546875 -2.328125 7.203125 -3.796875 C 5.859375 -5.273438 4.800781 -7.082031 4.03125 -9.21875 C 3.257812 -11.351562 2.875 -13.828125 2.875 -16.640625 C 2.875 -19.453125 3.25 -21.925781 4 -24.0625 C 4.75 -26.195312 5.796875 -28 7.140625 -29.46875 C 8.484375 -30.945312 10.070312 -32.054688 11.90625 -32.796875 C 13.738281 -33.546875 15.742188 -33.921875 17.921875 -33.921875 C 20.484375 -33.921875 22.703125 -33.441406 24.578125 -32.484375 C 26.453125 -31.523438 28.019531 -30.285156 29.28125 -28.765625 C 30.539062 -27.253906 31.46875 -25.59375 32.0625 -23.78125 C 32.65625 -21.96875 32.953125 -20.226562 32.953125 -18.5625 C 32.953125 -18.09375 32.929688 -17.664062 32.890625 -17.28125 C 32.847656 -16.894531 32.804688 -16.550781 32.765625 -16.25 C 32.722656 -15.914062 32.679688 -15.617188 32.640625 -15.359375 L 7.6875 -15.359375 C 7.851562 -11.515625 8.925781 -8.632812 10.90625 -6.71875 C 12.894531 -4.800781 15.335938 -3.84375 18.234375 -3.84375 C 22.078125 -3.84375 24.957031 -5.441406 26.875 -8.640625 L 32 -8.640625 C 30.894531 -5.566406 29.125 -3.25 26.6875 -1.6875 C 24.257812 -0.132812 21.441406 0.640625 18.234375 0.640625 Z M 28.15625 -19.515625 C 27.8125 -22.710938 26.703125 -25.164062 24.828125 -26.875 C 22.953125 -28.582031 20.648438 -29.4375 17.921875 -29.4375 C 15.191406 -29.4375 12.882812 -28.582031 11 -26.875 C 9.125 -25.164062 8.019531 -22.710938 7.6875 -19.515625 Z M 28.15625 -19.515625 "/></g></g></g><g fill="#000000" fill-opacity="1"><g transform="translate(630.557202, 1090.835982)"><g><path d="M 15.046875 0.640625 C 11.671875 0.640625 8.851562 -0.222656 6.59375 -1.953125 C 4.332031 -3.679688 2.878906 -5.910156 2.234375 -8.640625 L 7.359375 -8.640625 C 7.828125 -7.015625 8.773438 -5.804688 10.203125 -5.015625 C 11.640625 -4.234375 13.253906 -3.84375 15.046875 -3.84375 C 17.773438 -3.84375 19.789062 -4.332031 21.09375 -5.3125 C 22.394531 -6.289062 23.046875 -7.503906 23.046875 -8.953125 C 23.046875 -10.328125 22.550781 -11.363281 21.5625 -12.0625 C 20.582031 -12.769531 19.359375 -13.328125 17.890625 -13.734375 C 16.421875 -14.140625 14.832031 -14.519531 13.125 -14.875 C 11.414062 -15.238281 9.820312 -15.757812 8.34375 -16.4375 C 6.875 -17.125 5.648438 -18.097656 4.671875 -19.359375 C 3.691406 -20.617188 3.203125 -22.378906 3.203125 -24.640625 C 3.203125 -25.835938 3.46875 -26.988281 4 -28.09375 C 4.53125 -29.207031 5.304688 -30.203125 6.328125 -31.078125 C 7.359375 -31.953125 8.609375 -32.644531 10.078125 -33.15625 C 11.546875 -33.664062 13.203125 -33.921875 15.046875 -33.921875 C 16.492188 -33.921875 17.878906 -33.738281 19.203125 -33.375 C 20.523438 -33.007812 21.726562 -32.472656 22.8125 -31.765625 C 23.90625 -31.066406 24.820312 -30.203125 25.5625 -29.171875 C 26.3125 -28.148438 26.859375 -26.957031 27.203125 -25.59375 L 22.078125 -25.59375 C 21.609375 -26.707031 20.796875 -27.625 19.640625 -28.34375 C 18.492188 -29.070312 16.960938 -29.4375 15.046875 -29.4375 C 12.609375 -29.4375 10.820312 -29 9.6875 -28.125 C 8.5625 -27.25 8 -26.085938 8 -24.640625 C 8 -23.191406 8.488281 -22.09375 9.46875 -21.34375 C 10.445312 -20.59375 11.671875 -19.992188 13.140625 -19.546875 C 14.617188 -19.097656 16.210938 -18.691406 17.921875 -18.328125 C 19.628906 -17.972656 21.21875 -17.453125 22.6875 -16.765625 C 24.15625 -16.085938 25.378906 -15.148438 26.359375 -13.953125 C 27.347656 -12.753906 27.84375 -11.085938 27.84375 -8.953125 C 27.84375 -7.679688 27.550781 -6.46875 26.96875 -5.3125 C 26.394531 -4.15625 25.550781 -3.128906 24.4375 -2.234375 C 23.332031 -1.335938 21.988281 -0.632812 20.40625 -0.125 C 18.832031 0.382812 17.046875 0.640625 15.046875 0.640625 Z M 15.046875 0.640625 "/></g></g></g><g fill="#000000" fill-opacity="1"><g transform="translate(660.635351, 1090.835982)"><g><path d="M 15.046875 0.640625 C 11.671875 0.640625 8.851562 -0.222656 6.59375 -1.953125 C 4.332031 -3.679688 2.878906 -5.910156 2.234375 -8.640625 L 7.359375 -8.640625 C 7.828125 -7.015625 8.773438 -5.804688 10.203125 -5.015625 C 11.640625 -4.234375 13.253906 -3.84375 15.046875 -3.84375 C 17.773438 -3.84375 19.789062 -4.332031 21.09375 -5.3125 C 22.394531 -6.289062 23.046875 -7.503906 23.046875 -8.953125 C 23.046875 -10.328125 22.550781 -11.363281 21.5625 -12.0625 C 20.582031 -12.769531 19.359375 -13.328125 17.890625 -13.734375 C 16.421875 -14.140625 14.832031 -14.519531 13.125 -14.875 C 11.414062 -15.238281 9.820312 -15.757812 8.34375 -16.4375 C 6.875 -17.125 5.648438 -18.097656 4.671875 -19.359375 C 3.691406 -20.617188 3.203125 -22.378906 3.203125 -24.640625 C 3.203125 -25.835938 3.46875 -26.988281 4 -28.09375 C 4.53125 -29.207031 5.304688 -30.203125 6.328125 -31.078125 C 7.359375 -31.953125 8.609375 -32.644531 10.078125 -33.15625 C 11.546875 -33.664062 13.203125 -33.921875 15.046875 -33.921875 C 16.492188 -33.921875 17.878906 -33.738281 19.203125 -33.375 C 20.523438 -33.007812 21.726562 -32.472656 22.8125 -31.765625 C 23.90625 -31.066406 24.820312 -30.203125 25.5625 -29.171875 C 26.3125 -28.148438 26.859375 -26.957031 27.203125 -25.59375 L 22.078125 -25.59375 C 21.609375 -26.707031 20.796875 -27.625 19.640625 -28.34375 C 18.492188 -29.070312 16.960938 -29.4375 15.046875 -29.4375 C 12.609375 -29.4375 10.820312 -29 9.6875 -28.125 C 8.5625 -27.25 8 -26.085938 8 -24.640625 C 8 -23.191406 8.488281 -22.09375 9.46875 -21.34375 C 10.445312 -20.59375 11.671875 -19.992188 13.140625 -19.546875 C 14.617188 -19.097656 16.210938 -18.691406 17.921875 -18.328125 C 19.628906 -17.972656 21.21875 -17.453125 22.6875 -16.765625 C 24.15625 -16.085938 25.378906 -15.148438 26.359375 -13.953125 C 27.347656 -12.753906 27.84375 -11.085938 27.84375 -8.953125 C 27.84375 -7.679688 27.550781 -6.46875 26.96875 -5.3125 C 26.394531 -4.15625 25.550781 -3.128906 24.4375 -2.234375 C 23.332031 -1.335938 21.988281 -0.632812 20.40625 -0.125 C 18.832031 0.382812 17.046875 0.640625 15.046875 0.640625 Z M 15.046875 0.640625 "/></g></g></g><g fill="#000000" fill-opacity="1"><g transform="translate(690.7135, 1090.835982)"><g/></g></g><g fill="#000000" fill-opacity="1"><g transform="translate(704.792638, 1090.835982)"><g><path d="M 15.046875 0 C 12.609375 0 10.609375 -0.773438 9.046875 -2.328125 C 7.492188 -3.890625 6.71875 -5.882812 6.71875 -8.3125 L 6.71875 -28.796875 L 1.59375 -28.796875 L 1.59375 -33.28125 L 6.71875 -33.28125 L 7.359375 -42.234375 L 11.515625 -42.234375 L 11.515625 -33.28125 L 20.15625 -33.28125 L 20.15625 -28.796875 L 11.515625 -28.796875 L 11.515625 -8.3125 C 11.515625 -7.207031 11.878906 -6.289062 12.609375 -5.5625 C 13.335938 -4.84375 14.253906 -4.484375 15.359375 -4.484375 L 20.15625 -4.484375 L 20.15625 0 Z M 15.046875 0 "/></g></g></g><g fill="#000000" fill-opacity="1"><g transform="translate(727.511241, 1090.835982)"><g><path d="M 4.796875 -44.796875 L 9.59375 -44.796875 L 9.59375 -29.125 L 9.921875 -29.125 C 11.023438 -30.914062 12.363281 -32.160156 13.9375 -32.859375 C 15.519531 -33.566406 17.273438 -33.921875 19.203125 -33.921875 C 20.867188 -33.921875 22.457031 -33.617188 23.96875 -33.015625 C 25.476562 -32.421875 26.8125 -31.554688 27.96875 -30.421875 C 29.125 -29.296875 30.03125 -27.898438 30.6875 -26.234375 C 31.351562 -24.578125 31.6875 -22.660156 31.6875 -20.484375 L 31.6875 0 L 26.875 0 L 26.875 -20.484375 C 26.875 -23.378906 26.09375 -25.59375 24.53125 -27.125 C 22.976562 -28.664062 20.988281 -29.4375 18.5625 -29.4375 C 17.28125 -29.4375 16.09375 -29.191406 15 -28.703125 C 13.914062 -28.210938 12.96875 -27.5625 12.15625 -26.75 C 11.34375 -25.9375 10.710938 -24.984375 10.265625 -23.890625 C 9.816406 -22.804688 9.59375 -21.671875 9.59375 -20.484375 L 9.59375 0 L 4.796875 0 Z M 4.796875 -44.796875 "/></g></g></g><g fill="#000000" fill-opacity="1"><g transform="translate(763.349052, 1090.835982)"><g><path d="M 4.484375 -33.28125 L 9.28125 -33.28125 L 9.28125 0 L 4.484375 0 Z M 6.90625 -38.078125 C 5.96875 -38.078125 5.164062 -38.394531 4.5 -39.03125 C 3.84375 -39.675781 3.515625 -40.46875 3.515625 -41.40625 C 3.515625 -42.34375 3.832031 -43.140625 4.46875 -43.796875 C 5.113281 -44.460938 5.925781 -44.796875 6.90625 -44.796875 C 7.84375 -44.796875 8.628906 -44.460938 9.265625 -43.796875 C 9.910156 -43.140625 10.234375 -42.34375 10.234375 -41.40625 C 10.234375 -40.507812 9.910156 -39.726562 9.265625 -39.0625 C 8.628906 -38.40625 7.84375 -38.078125 6.90625 -38.078125 Z M 6.90625 -38.078125 "/></g></g></g><g fill="#000000" fill-opacity="1"><g transform="translate(777.108191, 1090.835982)"><g><path d="M 15.046875 0.640625 C 11.671875 0.640625 8.851562 -0.222656 6.59375 -1.953125 C 4.332031 -3.679688 2.878906 -5.910156 2.234375 -8.640625 L 7.359375 -8.640625 C 7.828125 -7.015625 8.773438 -5.804688 10.203125 -5.015625 C 11.640625 -4.234375 13.253906 -3.84375 15.046875 -3.84375 C 17.773438 -3.84375 19.789062 -4.332031 21.09375 -5.3125 C 22.394531 -6.289062 23.046875 -7.503906 23.046875 -8.953125 C 23.046875 -10.328125 22.550781 -11.363281 21.5625 -12.0625 C 20.582031 -12.769531 19.359375 -13.328125 17.890625 -13.734375 C 16.421875 -14.140625 14.832031 -14.519531 13.125 -14.875 C 11.414062 -15.238281 9.820312 -15.757812 8.34375 -16.4375 C 6.875 -17.125 5.648438 -18.097656 4.671875 -19.359375 C 3.691406 -20.617188 3.203125 -22.378906 3.203125 -24.640625 C 3.203125 -25.835938 3.46875 -26.988281 4 -28.09375 C 4.53125 -29.207031 5.304688 -30.203125 6.328125 -31.078125 C 7.359375 -31.953125 8.609375 -32.644531 10.078125 -33.15625 C 11.546875 -33.664062 13.203125 -33.921875 15.046875 -33.921875 C 16.492188 -33.921875 17.878906 -33.738281 19.203125 -33.375 C 20.523438 -33.007812 21.726562 -32.472656 22.8125 -31.765625 C 23.90625 -31.066406 24.820312 -30.203125 25.5625 -29.171875 C 26.3125 -28.148438 26.859375 -26.957031 27.203125 -25.59375 L 22.078125 -25.59375 C 21.609375 -26.707031 20.796875 -27.625 19.640625 -28.34375 C 18.492188 -29.070312 16.960938 -29.4375 15.046875 -29.4375 C 12.609375 -29.4375 10.820312 -29 9.6875 -28.125 C 8.5625 -27.25 8 -26.085938 8 -24.640625 C 8 -23.191406 8.488281 -22.09375 9.46875 -21.34375 C 10.445312 -20.59375 11.671875 -19.992188 13.140625 -19.546875 C 14.617188 -19.097656 16.210938 -18.691406 17.921875 -18.328125 C 19.628906 -17.972656 21.21875 -17.453125 22.6875 -16.765625 C 24.15625 -16.085938 25.378906 -15.148438 26.359375 -13.953125 C 27.347656 -12.753906 27.84375 -11.085938 27.84375 -8.953125 C 27.84375 -7.679688 27.550781 -6.46875 26.96875 -5.3125 C 26.394531 -4.15625 25.550781 -3.128906 24.4375 -2.234375 C 23.332031 -1.335938 21.988281 -0.632812 20.40625 -0.125 C 18.832031 0.382812 17.046875 0.640625 15.046875 0.640625 Z M 15.046875 0.640625 "/></g></g></g><g fill="#000000" fill-opacity="1"><g transform="translate(807.186328, 1090.835982)"><g/></g></g><g fill="#000000" fill-opacity="1"><g transform="translate(821.265467, 1090.835982)"><g><path d="M 6.71875 -28.796875 L 1.59375 -28.796875 L 1.59375 -33.28125 L 6.71875 -33.28125 L 6.71875 -36.484375 C 6.71875 -38.910156 7.492188 -40.898438 9.046875 -42.453125 C 10.609375 -44.015625 12.609375 -44.796875 15.046875 -44.796875 L 20.15625 -44.796875 L 20.15625 -40.3125 L 15.359375 -40.3125 C 14.253906 -40.3125 13.335938 -39.945312 12.609375 -39.21875 C 11.878906 -38.5 11.515625 -37.585938 11.515625 -36.484375 L 11.515625 -33.28125 L 20.15625 -33.28125 L 20.15625 -28.796875 L 11.515625 -28.796875 L 11.515625 0 L 6.71875 0 Z M 6.71875 -28.796875 "/></g></g></g><g fill="#000000" fill-opacity="1"><g transform="translate(842.704162, 1090.835982)"><g><path d="M 18.234375 0.640625 C 15.972656 0.640625 13.90625 0.269531 12.03125 -0.46875 C 10.15625 -1.21875 8.546875 -2.328125 7.203125 -3.796875 C 5.859375 -5.273438 4.800781 -7.082031 4.03125 -9.21875 C 3.257812 -11.351562 2.875 -13.828125 2.875 -16.640625 C 2.875 -19.453125 3.25 -21.925781 4 -24.0625 C 4.75 -26.195312 5.796875 -28 7.140625 -29.46875 C 8.484375 -30.945312 10.070312 -32.054688 11.90625 -32.796875 C 13.738281 -33.546875 15.742188 -33.921875 17.921875 -33.921875 C 20.484375 -33.921875 22.703125 -33.441406 24.578125 -32.484375 C 26.453125 -31.523438 28.019531 -30.285156 29.28125 -28.765625 C 30.539062 -27.253906 31.46875 -25.59375 32.0625 -23.78125 C 32.65625 -21.96875 32.953125 -20.226562 32.953125 -18.5625 C 32.953125 -18.09375 32.929688 -17.664062 32.890625 -17.28125 C 32.847656 -16.894531 32.804688 -16.550781 32.765625 -16.25 C 32.722656 -15.914062 32.679688 -15.617188 32.640625 -15.359375 L 7.6875 -15.359375 C 7.851562 -11.515625 8.925781 -8.632812 10.90625 -6.71875 C 12.894531 -4.800781 15.335938 -3.84375 18.234375 -3.84375 C 22.078125 -3.84375 24.957031 -5.441406 26.875 -8.640625 L 32 -8.640625 C 30.894531 -5.566406 29.125 -3.25 26.6875 -1.6875 C 24.257812 -0.132812 21.441406 0.640625 18.234375 0.640625 Z M 28.15625 -19.515625 C 27.8125 -22.710938 26.703125 -25.164062 24.828125 -26.875 C 22.953125 -28.582031 20.648438 -29.4375 17.921875 -29.4375 C 15.191406 -29.4375 12.882812 -28.582031 11 -26.875 C 9.125 -25.164062 8.019531 -22.710938 7.6875 -19.515625 Z M 28.15625 -19.515625 "/></g></g></g><g fill="#000000" fill-opacity="1"><g transform="translate(878.541973, 1090.835982)"><g><path d="M 14.078125 0.640625 C 12.328125 0.640625 10.738281 0.375 9.3125 -0.15625 C 7.882812 -0.6875 6.664062 -1.410156 5.65625 -2.328125 C 4.65625 -3.253906 3.890625 -4.332031 3.359375 -5.5625 C 2.828125 -6.800781 2.5625 -8.144531 2.5625 -9.59375 C 2.5625 -11.050781 2.835938 -12.394531 3.390625 -13.625 C 3.941406 -14.863281 4.738281 -15.941406 5.78125 -16.859375 C 6.832031 -17.773438 8.132812 -18.5 9.6875 -19.03125 C 11.25 -19.570312 13.035156 -19.84375 15.046875 -19.84375 L 24.3125 -19.84375 L 24.3125 -22.078125 C 24.3125 -24.335938 23.585938 -26.128906 22.140625 -27.453125 C 20.691406 -28.773438 18.75 -29.4375 16.3125 -29.4375 C 14.226562 -29.4375 12.546875 -29 11.265625 -28.125 C 9.984375 -27.25 9.109375 -26.085938 8.640625 -24.640625 L 3.515625 -24.640625 C 4.328125 -27.710938 5.863281 -30.023438 8.125 -31.578125 C 10.382812 -33.140625 13.113281 -33.921875 16.3125 -33.921875 C 18.320312 -33.921875 20.113281 -33.628906 21.6875 -33.046875 C 23.269531 -32.472656 24.613281 -31.675781 25.71875 -30.65625 C 26.832031 -29.632812 27.675781 -28.394531 28.25 -26.9375 C 28.832031 -25.488281 29.125 -23.867188 29.125 -22.078125 L 29.125 0 L 25.28125 0 L 24.640625 -4.484375 L 24.3125 -4.484375 C 23.976562 -3.921875 23.5 -3.34375 22.875 -2.75 C 22.257812 -2.15625 21.515625 -1.597656 20.640625 -1.078125 C 19.765625 -0.566406 18.769531 -0.15625 17.65625 0.15625 C 16.550781 0.476562 15.359375 0.640625 14.078125 0.640625 Z M 14.078125 -3.84375 C 15.660156 -3.84375 17.085938 -4.085938 18.359375 -4.578125 C 19.640625 -5.066406 20.71875 -5.726562 21.59375 -6.5625 C 22.46875 -7.394531 23.140625 -8.375 23.609375 -9.5 C 24.078125 -10.632812 24.3125 -11.84375 24.3125 -13.125 L 24.3125 -15.359375 L 15.046875 -15.359375 C 12.484375 -15.359375 10.5625 -14.84375 9.28125 -13.8125 C 8 -12.789062 7.359375 -11.382812 7.359375 -9.59375 C 7.359375 -7.800781 7.953125 -6.394531 9.140625 -5.375 C 10.335938 -4.351562 11.984375 -3.84375 14.078125 -3.84375 Z M 14.078125 -3.84375 "/></g></g></g><g fill="#000000" fill-opacity="1"><g transform="translate(911.819924, 1090.835982)"><g><path d="M 15.046875 0 C 12.609375 0 10.609375 -0.773438 9.046875 -2.328125 C 7.492188 -3.890625 6.71875 -5.882812 6.71875 -8.3125 L 6.71875 -28.796875 L 1.59375 -28.796875 L 1.59375 -33.28125 L 6.71875 -33.28125 L 7.359375 -42.234375 L 11.515625 -42.234375 L 11.515625 -33.28125 L 20.15625 -33.28125 L 20.15625 -28.796875 L 11.515625 -28.796875 L 11.515625 -8.3125 C 11.515625 -7.207031 11.878906 -6.289062 12.609375 -5.5625 C 13.335938 -4.84375 14.253906 -4.484375 15.359375 -4.484375 L 20.15625 -4.484375 L 20.15625 0 Z M 15.046875 0 "/></g></g></g><g fill="#000000" fill-opacity="1"><g transform="translate(934.53855, 1090.835982)"><g><path d="M 16.953125 0.640625 C 15.210938 0.640625 13.570312 0.332031 12.03125 -0.28125 C 10.5 -0.90625 9.175781 -1.789062 8.0625 -2.9375 C 6.957031 -4.09375 6.082031 -5.5 5.4375 -7.15625 C 4.800781 -8.820312 4.484375 -10.703125 4.484375 -12.796875 L 4.484375 -33.28125 L 9.28125 -33.28125 L 9.28125 -12.796875 C 9.28125 -9.898438 10.054688 -7.679688 11.609375 -6.140625 C 13.171875 -4.609375 15.164062 -3.84375 17.59375 -3.84375 C 18.875 -3.84375 20.054688 -4.085938 21.140625 -4.578125 C 22.234375 -5.066406 23.1875 -5.71875 24 -6.53125 C 24.8125 -7.34375 25.441406 -8.289062 25.890625 -9.375 C 26.335938 -10.46875 26.5625 -11.609375 26.5625 -12.796875 L 26.5625 -33.28125 L 31.359375 -33.28125 L 31.359375 0 L 27.515625 0 L 26.875 -4.484375 L 26.5625 -4.484375 C 25.445312 -2.554688 24.003906 -1.21875 22.234375 -0.46875 C 20.460938 0.269531 18.703125 0.640625 16.953125 0.640625 Z M 16.953125 0.640625 "/></g></g></g><g fill="#000000" fill-opacity="1"><g transform="translate(970.376361, 1090.835982)"><g><path d="M 4.484375 -33.28125 L 8.3125 -33.28125 L 8.953125 -28.796875 L 9.28125 -28.796875 C 10.257812 -30.421875 11.472656 -31.570312 12.921875 -32.25 C 14.378906 -32.9375 16.148438 -33.28125 18.234375 -33.28125 L 21.765625 -33.28125 L 21.765625 -28.796875 L 18.234375 -28.796875 C 16.953125 -28.796875 15.769531 -28.582031 14.6875 -28.15625 C 13.601562 -27.726562 12.65625 -27.148438 11.84375 -26.421875 C 11.03125 -25.703125 10.398438 -24.828125 9.953125 -23.796875 C 9.503906 -22.773438 9.28125 -21.671875 9.28125 -20.484375 L 9.28125 0 L 4.484375 0 Z M 4.484375 -33.28125 "/></g></g></g><g fill="#000000" fill-opacity="1"><g transform="translate(993.094941, 1090.835982)"><g><path d="M 18.234375 0.640625 C 15.972656 0.640625 13.90625 0.269531 12.03125 -0.46875 C 10.15625 -1.21875 8.546875 -2.328125 7.203125 -3.796875 C 5.859375 -5.273438 4.800781 -7.082031 4.03125 -9.21875 C 3.257812 -11.351562 2.875 -13.828125 2.875 -16.640625 C 2.875 -19.453125 3.25 -21.925781 4 -24.0625 C 4.75 -26.195312 5.796875 -28 7.140625 -29.46875 C 8.484375 -30.945312 10.070312 -32.054688 11.90625 -32.796875 C 13.738281 -33.546875 15.742188 -33.921875 17.921875 -33.921875 C 20.484375 -33.921875 22.703125 -33.441406 24.578125 -32.484375 C 26.453125 -31.523438 28.019531 -30.285156 29.28125 -28.765625 C 30.539062 -27.253906 31.46875 -25.59375 32.0625 -23.78125 C 32.65625 -21.96875 32.953125 -20.226562 32.953125 -18.5625 C 32.953125 -18.09375 32.929688 -17.664062 32.890625 -17.28125 C 32.847656 -16.894531 32.804688 -16.550781 32.765625 -16.25 C 32.722656 -15.914062 32.679688 -15.617188 32.640625 -15.359375 L 7.6875 -15.359375 C 7.851562 -11.515625 8.925781 -8.632812 10.90625 -6.71875 C 12.894531 -4.800781 15.335938 -3.84375 18.234375 -3.84375 C 22.078125 -3.84375 24.957031 -5.441406 26.875 -8.640625 L 32 -8.640625 C 30.894531 -5.566406 29.125 -3.25 26.6875 -1.6875 C 24.257812 -0.132812 21.441406 0.640625 18.234375 0.640625 Z M 28.15625 -19.515625 C 27.8125 -22.710938 26.703125 -25.164062 24.828125 -26.875 C 22.953125 -28.582031 20.648438 -29.4375 17.921875 -29.4375 C 15.191406 -29.4375 12.882812 -28.582031 11 -26.875 C 9.125 -25.164062 8.019531 -22.710938 7.6875 -19.515625 Z M 28.15625 -19.515625 "/></g></g></g><g fill="#000000" fill-opacity="1"><g transform="translate(1028.932752, 1090.835982)"><g><path d="M 7.046875 0.3125 C 6.054688 0.3125 5.21875 -0.0234375 4.53125 -0.703125 C 3.851562 -1.390625 3.515625 -2.222656 3.515625 -3.203125 C 3.515625 -4.179688 3.851562 -5.007812 4.53125 -5.6875 C 5.21875 -6.375 6.054688 -6.71875 7.046875 -6.71875 C 8.023438 -6.71875 8.851562 -6.375 9.53125 -5.6875 C 10.21875 -5.007812 10.5625 -4.179688 10.5625 -3.203125 C 10.5625 -2.222656 10.21875 -1.390625 9.53125 -0.703125 C 8.851562 -0.0234375 8.023438 0.3125 7.046875 0.3125 Z M 7.046875 0.3125 "/></g></g></g></svg>