<svg xmlns="http://www.w3.org/2000/svg" xmlns:xlink="http://www.w3.org/1999/xlink" width="1080" zoomAndPan="magnify" viewBox="0 0 810 809.999993" height="1080" preserveAspectRatio="xMidYMid meet" version="1.0"><defs><g/></defs><rect x="-81" width="972" fill="#ffffff" y="-80.999999" height="971.999992" fill-opacity="1"/><rect x="-81" width="972" fill="#000000" y="-80.999999" height="971.999992" fill-opacity="1"/><g fill="#ffffff" fill-opacity="1"><g transform="translate(80.999999, 567.945318)"><g><path d="M 210.75 -4.03125 C 211.195312 -3.132812 211.082031 -2.238281 210.40625 -1.34375 C 209.738281 -0.445312 208.84375 0 207.71875 0 L 161.40625 0 C 159.84375 0 158.835938 -0.671875 158.390625 -2.015625 L 105.375 -151.6875 L 53.015625 -2.015625 C 52.796875 -0.671875 51.679688 0 49.671875 0 L 3.6875 0 C 2.125 0 1.0625 -0.445312 0.5 -1.34375 C -0.0507812 -2.238281 -0.109375 -3.132812 0.328125 -4.03125 L 102.015625 -266.453125 C 102.460938 -267.796875 103.582031 -268.46875 105.375 -268.46875 C 107.164062 -268.46875 108.285156 -267.796875 108.734375 -266.453125 Z M 210.75 -4.03125 "/></g></g></g><g fill="#ffffff" fill-opacity="1"><g transform="translate(302.476748, 567.945318)"><g><path d="M 197.984375 -268.46875 C 200.222656 -268.46875 201.34375 -267.457031 201.34375 -265.4375 L 201.34375 -89.59375 C 201.34375 -70.800781 196.925781 -54.691406 188.09375 -41.265625 C 179.257812 -27.847656 167.234375 -17.613281 152.015625 -10.5625 C 136.804688 -3.519531 119.691406 0 100.671875 0 C 82.328125 0 65.492188 -3.632812 50.171875 -10.90625 C 34.847656 -18.175781 22.65625 -28.519531 13.59375 -41.9375 C 4.53125 -55.363281 0 -71.25 0 -89.59375 L 0 -219.796875 L 50.671875 -219.796875 L 50.671875 -89.9375 C 52.234375 -76.738281 57.878906 -66.671875 67.609375 -59.734375 C 77.347656 -52.796875 88.367188 -49.328125 100.671875 -49.328125 C 109.171875 -49.328125 117.222656 -50.78125 124.828125 -53.6875 C 132.441406 -56.601562 138.648438 -61.078125 143.453125 -67.109375 C 148.265625 -73.148438 150.671875 -80.644531 150.671875 -89.59375 L 150.671875 -265.4375 C 150.671875 -267.457031 151.898438 -268.46875 154.359375 -268.46875 Z M 197.984375 -268.46875 "/></g></g></g><g fill="#ffffff" fill-opacity="1"><g transform="translate(513.886396, 567.945318)"><g><path d="M 204.703125 -219.125 L 153.359375 -219.125 C 146.867188 -219.351562 139.257812 -219.1875 130.53125 -218.625 C 121.8125 -218.070312 112.863281 -216.394531 103.6875 -213.59375 C 94.519531 -210.800781 85.960938 -206.382812 78.015625 -200.34375 C 70.078125 -194.300781 63.703125 -185.910156 58.890625 -175.171875 C 54.078125 -164.429688 51.671875 -150.785156 51.671875 -134.234375 C 51.671875 -112.972656 56.085938 -95.910156 64.921875 -83.046875 C 73.765625 -70.191406 85.847656 -61.078125 101.171875 -55.703125 C 116.492188 -50.335938 133.890625 -48.101562 153.359375 -49 L 153.359375 -116.109375 L 101.6875 -116.109375 L 101.6875 -167.453125 L 204.703125 -167.453125 L 204.703125 -3.015625 C 204.703125 -1.003906 203.472656 0 201.015625 0 L 157.390625 0 C 144.191406 0 130.375 -0.894531 115.9375 -2.6875 C 101.507812 -4.476562 87.414062 -7.945312 73.65625 -13.09375 C 59.894531 -18.238281 47.476562 -25.734375 36.40625 -35.578125 C 25.332031 -45.421875 16.492188 -58.394531 9.890625 -74.5 C 3.296875 -90.601562 0 -110.515625 0 -134.234375 C 0 -157.273438 3.242188 -176.679688 9.734375 -192.453125 C 16.222656 -208.222656 25.003906 -221.085938 36.078125 -231.046875 C 47.148438 -241.003906 59.507812 -248.722656 73.15625 -254.203125 C 86.800781 -259.679688 100.894531 -263.425781 115.4375 -265.4375 C 129.976562 -267.457031 143.960938 -268.46875 157.390625 -268.46875 L 201.015625 -268.46875 C 203.472656 -268.46875 204.703125 -267.457031 204.703125 -265.4375 Z M 204.703125 -219.125 "/></g></g></g></svg>